<?xml version="1.0" encoding="UTF-8"?>
<svg width="96px" height="97px" viewBox="0 0 96 97" version="1.1" xmlns="http://www.w3.org/2000/svg" xmlns:xlink="http://www.w3.org/1999/xlink">
    <!-- Generator: Sketch 55.1 (78136) - https://sketchapp.com -->
    <title>cart</title>
    <desc>Created with Sketch.</desc>
    <g id="SVGs" stroke="none" stroke-width="1" fill="none" fill-rule="evenodd">
        <g id="cart">
            <path d="M95.844,96.89 C63.981,96.89 32.022,96.89 0.032,96.89 C0.032,64.952 0.032,33.016 0.032,0.984 C31.896,0.984 63.791,0.984 95.844,0.984 C95.844,32.889 95.844,64.89 95.844,96.89 Z M28.675,60.971 C31.259,54.68 34.94,52.31 41.237,52.737 C50.185,53.341 59.212,52.659 68.189,52.987 C72.752,53.153 75.096,51.524 76.737,47.302 C79.622,39.874 83.098,32.677 86.305,25.374 C89.23,18.711 88.098,16.904 80.954,16.895 C65.807,16.875 50.658,16.76 35.513,16.952 C29.372,17.03 23.116,18.014 23.041,9.212 C17.776,9.212 13.024,9.212 8.376,9.212 C8.376,11.938 8.376,14.33 8.376,16.889 C9.744,16.889 10.761,17.034 11.724,16.865 C15.953,16.123 17.948,17.93 18.988,22.052 C20.326,27.356 22.001,32.633 24.146,37.658 C27.015,44.379 27.58,49.979 21.967,56.107 C17.202,61.308 21.087,68.719 28.171,68.798 C45.145,68.988 62.122,68.796 79.098,68.727 C79.345,68.726 79.591,68.325 79.73,68.205 C79.73,65.837 79.73,63.568 79.73,60.972 C62.698,60.971 45.934,60.971 28.675,60.971 Z M35.958,80.722 C35.87,76.389 32.175,72.856 27.83,72.947 C23.475,73.039 19.938,76.718 20.039,81.051 C20.141,85.377 23.859,88.953 28.159,88.858 C32.466,88.762 36.045,85.029 35.958,80.722 Z M79.957,80.751 C79.886,76.419 76.203,72.871 71.858,72.946 C67.502,73.022 63.953,76.685 64.039,81.021 C64.123,85.349 67.826,88.936 72.129,88.857 C76.432,88.778 80.029,85.055 79.957,80.751 Z" id="Shape" fill="#FFFFFF"></path>
            <path d="M28.675,60.971 C45.934,60.971 62.698,60.971 79.729,60.971 C79.729,63.568 79.729,65.836 79.729,68.204 C79.59,68.324 79.344,68.725 79.097,68.726 C62.121,68.795 45.144,68.988 28.17,68.797 C21.087,68.718 17.201,61.307 21.966,56.106 C27.579,49.978 27.014,44.377 24.145,37.657 C22,32.632 20.325,27.354 18.987,22.051 C17.947,17.93 15.951,16.122 11.723,16.864 C10.761,17.033 9.743,16.888 8.375,16.888 C8.375,14.329 8.375,11.937 8.375,9.211 C13.023,9.211 17.775,9.211 23.04,9.211 C23.115,18.013 29.371,17.029 35.512,16.951 C50.657,16.76 65.805,16.875 80.953,16.894 C88.097,16.903 89.228,18.709 86.304,25.373 C83.097,32.676 79.62,39.873 76.736,47.301 C75.095,51.523 72.751,53.152 68.188,52.986 C59.211,52.658 50.184,53.34 41.236,52.736 C34.939,52.31 31.259,54.68 28.675,60.971 Z M39.556,35.214 C39.939,35.848 40.321,36.481 40.704,37.113 C45.751,37.113 50.798,37.113 55.825,37.113 C55.974,39.679 56.096,41.751 56.263,44.647 C60.459,41.132 64.038,38.134 67.925,34.877 C63.859,31.466 60.364,28.533 56.241,25.074 C56.061,28.17 55.932,30.363 55.785,32.891 C51.356,32.891 47.216,32.716 43.107,32.997 C41.879,33.083 40.738,34.441 39.556,35.214 Z" id="Shape" fill="#000000" fill-rule="nonzero"></path>
            <path d="M35.958,80.722 C36.046,85.029 32.466,88.762 28.159,88.858 C23.86,88.954 20.141,85.378 20.039,81.051 C19.937,76.718 23.475,73.038 27.83,72.947 C32.174,72.856 35.869,76.389 35.958,80.722 Z" id="Path" fill="#000000" fill-rule="nonzero"></path>
            <path d="M79.957,80.751 C80.029,85.055 76.432,88.778 72.129,88.857 C67.826,88.936 64.123,85.349 64.039,81.021 C63.953,76.685 67.502,73.022 71.858,72.946 C76.203,72.872 79.886,76.419 79.957,80.751 Z" id="Path" fill="#000000" fill-rule="nonzero"></path>
            <path d="M39.556,35.214 C40.738,34.441 41.879,33.083 43.108,32.999 C47.216,32.718 51.357,32.893 55.786,32.893 C55.933,30.365 56.062,28.171 56.242,25.076 C60.365,28.535 63.859,31.468 67.926,34.879 C64.039,38.136 60.46,41.134 56.264,44.649 C56.096,41.753 55.975,39.681 55.826,37.115 C50.799,37.115 45.752,37.115 40.705,37.115 C40.321,36.481 39.939,35.848 39.556,35.214 Z" id="Path" fill="#FFFFFF"></path>
        </g>
    </g>
</svg>