<?xml version="1.0" encoding="utf-8"?>
<!-- Generator: Adobe Illustrator 16.0.0, SVG Export Plug-In . SVG Version: 6.00 Build 0)  -->
<!DOCTYPE svg PUBLIC "-//W3C//DTD SVG 1.1//EN" "http://www.w3.org/Graphics/SVG/1.1/DTD/svg11.dtd">
<svg version="1.1" id="Layer_1" xmlns="http://www.w3.org/2000/svg" xmlns:xlink="http://www.w3.org/1999/xlink" x="0px" y="0px"
	 width="595.28px" height="841.89px" viewBox="0 0 595.28 841.89" enable-background="new 0 0 595.28 841.89" xml:space="preserve">
<g>
	<path fill-rule="evenodd" clip-rule="evenodd" fill="#FFFFFF" d="M346.844,469.89c-31.863,0-63.822,0-95.812,0
		c0-31.938,0-63.874,0-95.906c31.864,0,63.759,0,95.812,0C346.844,405.889,346.844,437.89,346.844,469.89z M279.675,433.971
		c2.584-6.291,6.265-8.661,12.562-8.234c8.948,0.604,17.975-0.078,26.952,0.25c4.563,0.166,6.907-1.463,8.548-5.685
		c2.885-7.428,6.361-14.625,9.568-21.928c2.925-6.663,1.793-8.47-5.351-8.479c-15.147-0.02-30.296-0.135-45.441,0.057
		c-6.141,0.078-12.397,1.062-12.472-7.74c-5.265,0-10.017,0-14.665,0c0,2.726,0,5.118,0,7.677c1.368,0,2.385,0.145,3.348-0.024
		c4.229-0.742,6.224,1.065,7.264,5.187c1.338,5.304,3.013,10.581,5.158,15.606c2.869,6.721,3.434,12.321-2.179,18.449
		c-4.765,5.201-0.88,12.612,6.204,12.691c16.974,0.19,33.951-0.002,50.927-0.071c0.247-0.001,0.493-0.402,0.632-0.522
		c0-2.368,0-4.637,0-7.233C313.698,433.971,296.934,433.971,279.675,433.971z M286.958,453.722
		c-0.088-4.333-3.783-7.866-8.128-7.775c-4.355,0.092-7.892,3.771-7.791,8.104c0.102,4.326,3.82,7.902,8.12,7.807
		C283.466,461.762,287.045,458.029,286.958,453.722z M330.957,453.751c-0.071-4.332-3.754-7.88-8.099-7.805
		c-4.356,0.076-7.905,3.739-7.819,8.075c0.084,4.328,3.787,7.915,8.09,7.836S331.029,458.055,330.957,453.751z"/>
	<path fill-rule="evenodd" clip-rule="evenodd" d="M279.675,433.971c17.259,0,34.023,0,51.054,0c0,2.597,0,4.865,0,7.233
		c-0.139,0.12-0.385,0.521-0.632,0.522c-16.976,0.069-33.953,0.262-50.927,0.071c-7.083-0.079-10.969-7.49-6.204-12.691
		c5.613-6.128,5.048-11.729,2.179-18.449c-2.145-5.025-3.82-10.303-5.158-15.606c-1.04-4.121-3.036-5.929-7.264-5.187
		c-0.962,0.169-1.98,0.024-3.348,0.024c0-2.559,0-4.951,0-7.677c4.648,0,9.4,0,14.665,0c0.075,8.802,6.331,7.818,12.472,7.74
		c15.145-0.191,30.293-0.076,45.441-0.057c7.144,0.009,8.275,1.815,5.351,8.479c-3.207,7.303-6.684,14.5-9.568,21.928
		c-1.641,4.222-3.985,5.851-8.548,5.685c-8.977-0.328-18.004,0.354-26.952-0.25C285.939,425.31,282.259,427.68,279.675,433.971z
		 M290.556,408.214c0.383,0.634,0.765,1.267,1.148,1.899c5.047,0,10.094,0,15.121,0c0.149,2.566,0.271,4.638,0.438,7.534
		c4.196-3.515,7.775-6.513,11.662-9.77c-4.066-3.411-7.561-6.344-11.684-9.803c-0.18,3.096-0.309,5.289-0.456,7.817
		c-4.429,0-8.569-0.175-12.678,0.106C292.879,406.083,291.738,407.441,290.556,408.214z"/>
	<path fill-rule="evenodd" clip-rule="evenodd" d="M286.958,453.722c0.088,4.307-3.492,8.04-7.799,8.136
		c-4.299,0.096-8.018-3.48-8.12-7.807c-0.102-4.333,3.436-8.013,7.791-8.104C283.174,445.856,286.869,449.389,286.958,453.722z"/>
	<path fill-rule="evenodd" clip-rule="evenodd" d="M330.957,453.751c0.072,4.304-3.525,8.027-7.828,8.106s-8.006-3.508-8.09-7.836
		c-0.086-4.336,3.463-7.999,7.819-8.075C327.203,445.872,330.886,449.419,330.957,453.751z"/>
	<path fill-rule="evenodd" clip-rule="evenodd" fill="#FFFFFF" d="M290.556,408.214c1.182-0.773,2.323-2.131,3.552-2.215
		c4.108-0.281,8.249-0.106,12.678-0.106c0.147-2.528,0.276-4.722,0.456-7.817c4.123,3.459,7.617,6.392,11.684,9.803
		c-3.887,3.257-7.466,6.255-11.662,9.77c-0.168-2.896-0.289-4.968-0.438-7.534c-5.027,0-10.074,0-15.121,0
		C291.321,409.481,290.939,408.848,290.556,408.214z"/>
</g>
</svg>
