<?xml version="1.0" encoding="UTF-8"?>
<svg width="80px" height="80px" viewBox="0 0 80 80" version="1.1" xmlns="http://www.w3.org/2000/svg" xmlns:xlink="http://www.w3.org/1999/xlink">
    <!-- Generator: Sketch 55.1 (78136) - https://sketchapp.com -->
    <title>create-shop</title>
    <desc>Created with Sketch.</desc>
    <g id="SVGs" stroke="none" stroke-width="1" fill="none" fill-rule="evenodd">
        <g id="create-shop" transform="translate(-8.000000, -8.000000)">
            <path d="M95.8,95.9 C63.9,95.9 32,95.9 0,95.9 C0,64 0,32 0,0 C31.9,0 63.8,0 95.8,0 C95.8,31.9 95.8,63.9 95.8,95.9 Z M56.5,48.6 C61.6,52.2 66.5,52.8 72,50.5 C73.2,50 74.9,50.7 76.4,50.7 C79.2,50.6 82.7,51.4 84.6,50 C86.5,48.6 88,44.8 87.6,42.3 C86.1,33 83.9,23.7 81.8,14.5 C80.9,10.5 78.3,8 74.1,8 C56.9,7.9 39.8,7.9 22.6,8 C18.5,8 15.4,10.1 14.5,14.1 C12.3,23.7 10.1,33.2 8.3,42.9 C7.4,47.7 11.7,53.1 15.9,51.6 C21,49.9 25.3,51.3 30,51.7 C32.4,51.9 35,50.4 37.6,49.8 C38.7,49.5 40.2,49.2 41.1,49.7 C46.4,53.1 51.4,52.3 56.5,48.6 Z M20,56.2 C17,56.2 14.7,56.2 12.1,56.2 C12.1,63.4 11.8,70.4 12.2,77.3 C12.5,83.2 17.6,87.8 23.6,87.8 C39.8,88 55.9,88 72.1,87.8 C78,87.7 83.2,83.6 83.6,78 C84.2,70.8 83.7,63.5 83.7,56.3 C80.9,56.3 78.5,56.3 75.9,56.3 C75.9,62.2 75.9,67.7 75.9,73.1 C75.9,79.3 74.9,80.1 67.9,79.5 C67.9,71.8 67.9,64 67.9,56.2 C62.3,56.2 57.3,56.2 51.7,56.2 C51.7,64.2 51.7,72 51.7,79.9 C42.8,79.9 34.5,79.7 26.2,80 C21.3,80.1 19.7,78 19.9,73.4 C20.2,67.7 20,62.1 20,56.2 Z M43.8,56.3 C38.3,56.3 33.3,56.3 28.4,56.3 C28.4,61.7 28.4,66.8 28.4,71.7 C33.7,71.7 38.7,71.7 43.8,71.7 C43.8,66.4 43.8,61.5 43.8,56.3 Z" id="Shape"></path>
            <path d="M56.5,48.6 C51.4,52.3 46.4,53.1 41,49.7 C40.2,49.2 38.7,49.5 37.5,49.8 C34.9,50.4 32.4,52 29.9,51.7 C25.2,51.2 20.9,49.8 15.8,51.6 C11.6,53 7.3,47.7 8.2,42.9 C10,33.3 12.2,23.7 14.4,14.1 C15.3,10.1 18.4,8 22.5,8 C39.7,7.9 56.8,7.9 74,8 C78.2,8 80.8,10.5 81.7,14.5 C83.8,23.7 86,33 87.5,42.3 C87.9,44.7 86.4,48.5 84.5,50 C82.6,51.4 79.1,50.7 76.3,50.7 C74.8,50.7 73.1,50 71.9,50.5 C66.6,52.8 61.6,52.2 56.5,48.6 Z M28,20.1 C27,25.8 26.1,31.2 25,36.6 C24.3,40.1 24.5,43.1 28.7,43.8 C32.7,44.5 35.1,42.4 36,38.7 C37.4,32.6 38.6,26.5 39.9,20.1 C35.8,20.1 32.2,20.1 28,20.1 Z M56,20.1 C57.3,26.6 58.5,32.7 60,38.9 C60.9,42.6 63.6,44.5 67.5,43.7 C71.4,42.9 71.6,40.1 71,36.8 C69.9,31.3 69,25.8 68,20.2 C63.9,20.1 60.1,20.1 56,20.1 Z" id="Shape" fill="#000000" fill-rule="nonzero"></path>
            <path d="M20,56.2 C20,62.1 20.2,67.7 19.9,73.4 C19.7,78 21.4,80.2 26.2,80 C34.5,79.8 42.8,79.9 51.7,79.9 C51.7,72 51.7,64.3 51.7,56.2 C57.3,56.2 62.3,56.2 67.9,56.2 C67.9,64.1 67.9,71.8 67.9,79.5 C74.9,80.1 75.9,79.3 75.9,73.1 C75.9,67.6 75.9,62.1 75.9,56.3 C78.5,56.3 80.9,56.3 83.7,56.3 C83.7,63.5 84.1,70.8 83.6,78 C83.2,83.6 78,87.8 72.1,87.8 C55.9,87.9 39.8,88 23.6,87.8 C17.6,87.7 12.5,83.2 12.2,77.3 C11.8,70.4 12.1,63.4 12.1,56.2 C14.7,56.2 17,56.2 20,56.2 Z" id="Path" fill="#000000" fill-rule="nonzero"></path>
            <path d="M43.8,56.3 C43.8,61.6 43.8,66.5 43.8,71.7 C38.7,71.7 33.7,71.7 28.4,71.7 C28.4,66.8 28.4,61.7 28.4,56.3 C33.3,56.3 38.3,56.3 43.8,56.3 Z" id="Path" fill="#000000" fill-rule="nonzero"></path>
            <path d="M28,20.1 C32.2,20.1 35.8,20.1 39.9,20.1 C38.6,26.5 37.4,32.6 36,38.7 C35.1,42.4 32.7,44.5 28.7,43.8 C24.5,43.1 24.3,40.1 25,36.6 C26.1,31.2 27,25.8 28,20.1 Z" id="Path"></path>
            <path d="M56,20.1 C60.1,20.1 63.8,20.1 67.9,20.1 C68.9,25.7 69.8,31.2 70.9,36.7 C71.6,40 71.3,42.8 67.4,43.6 C63.5,44.4 60.8,42.6 59.9,38.8 C58.5,32.8 57.4,26.6 56,20.1 Z" id="Path"></path>
        </g>
    </g>
</svg>