<?xml version="1.0" encoding="utf-8"?>
<!-- Generator: Adobe Illustrator 16.0.0, SVG Export Plug-In . SVG Version: 6.00 Build 0)  -->
<!DOCTYPE svg PUBLIC "-//W3C//DTD SVG 1.1//EN" "http://www.w3.org/Graphics/SVG/1.1/DTD/svg11.dtd">
<svg version="1.1" id="Layer_1" xmlns="http://www.w3.org/2000/svg" xmlns:xlink="http://www.w3.org/1999/xlink" x="0px" y="0px"
	 width="595.3px" height="841.9px" viewBox="0 0 595.28 841.89" enable-background="new 0 0 595.28 841.89" xml:space="preserve">
<g>
	<path fill-rule="evenodd" clip-rule="evenodd" fill="none" d="M 346.8 469.9 c -31.9 0 -63.8 0 -95.8 0 c 0 -31.9 0 -63.9 0 -95.9 c 31.9 0 63.8 0 95.8 0 C 346.8 405.9 346.8 437.9 346.8 469.9 z M 307.5 422.6 c 5.1 3.6 10 4.2 15.5 1.9 c 1.2 -0.5 2.9 0.2 4.4 0.2 c 2.8 -0.1 6.3 0.7 8.2 -0.7 c 1.9 -1.4 3.4 -5.2 3 -7.7 c -1.5 -9.3 -3.7 -18.6 -5.8 -27.8 c -0.9 -4 -3.5 -6.5 -7.7 -6.5 c -17.2 -0.1 -34.3 -0.1 -51.5 0 c -4.1 0 -7.2 2.1 -8.1 6.1 c -2.2 9.6 -4.4 19.1 -6.2 28.8 c -0.9 4.8 3.4 10.2 7.6 8.7 c 5.1 -1.7 9.4 -0.3 14.1 0.1 c 2.4 0.2 5 -1.3 7.6 -1.9 c 1.1 -0.3 2.6 -0.6 3.5 -0.1 C 297.4 427.1 302.4 426.3 307.5 422.6 z M 271 430.2 c -3 0 -5.3 0 -7.9 0 c 0 7.2 -0.3 14.2 0.1 21.1 c 0.3 5.9 5.4 10.5 11.4 10.5 c 16.2 0.2 32.3 0.2 48.5 0 c 5.9 -0.1 11.1 -4.2 11.5 -9.8 c 0.6 -7.2 0.1 -14.5 0.1 -21.7 c -2.8 0 -5.2 0 -7.8 0 c 0 5.9 0 11.4 0 16.8 c 0 6.2 -1 7 -8 6.4 c 0 -7.7 0 -15.5 0 -23.3 c -5.6 0 -10.6 0 -16.2 0 c 0 8 0 15.8 0 23.7 c -8.9 0 -17.2 -0.2 -25.5 0.1 c -4.9 0.1 -6.5 -2 -6.3 -6.6 C 271.2 441.7 271 436.1 271 430.2 z M 294.8 430.3 c -5.5 0 -10.5 0 -15.4 0 c 0 5.4 0 10.5 0 15.4 c 5.3 0 10.3 0 15.4 0 C 294.8 440.4 294.8 435.5 294.8 430.3 z"/>
	<path fill-rule="evenodd" clip-rule="evenodd" d="M 307.5 422.6 c -5.1 3.7 -10.1 4.5 -15.5 1.1 c -0.8 -0.5 -2.3 -0.2 -3.5 0.1 c -2.6 0.6 -5.1 2.2 -7.6 1.9 c -4.7 -0.5 -9 -1.9 -14.1 -0.1 c -4.2 1.4 -8.5 -3.9 -7.6 -8.7 c 1.8 -9.6 4 -19.2 6.2 -28.8 c 0.9 -4 4 -6.1 8.1 -6.1 c 17.2 -0.1 34.3 -0.1 51.5 0 c 4.2 0 6.8 2.5 7.7 6.5 c 2.1 9.2 4.3 18.5 5.8 27.8 c 0.4 2.4 -1.1 6.2 -3 7.7 c -1.9 1.4 -5.4 0.7 -8.2 0.7 c -1.5 0 -3.2 -0.7 -4.4 -0.2 C 317.6 426.8 312.6 426.2 307.5 422.6 z M 279 394.1 c -1 5.7 -1.9 11.1 -3 16.5 c -0.7 3.5 -0.5 6.5 3.7 7.2 c 4 0.7 6.4 -1.4 7.3 -5.1 c 1.4 -6.1 2.6 -12.2 3.9 -18.6 C 286.8 394.1 283.2 394.1 279 394.1 z M 307 394.1 c 1.3 6.5 2.5 12.6 4 18.8 c 0.9 3.7 3.6 5.6 7.5 4.8 c 3.9 -0.8 4.1 -3.6 3.5 -6.9 c -1.1 -5.5 -2 -11 -3 -16.6 C 314.9 394.1 311.1 394.1 307 394.1 z"/>
	<path fill-rule="evenodd" clip-rule="evenodd" d="M 271 430.2 c 0 5.9 0.2 11.5 -0.1 17.2 c -0.2 4.6 1.5 6.8 6.3 6.6 c 8.3 -0.2 16.6 -0.1 25.5 -0.1 c 0 -7.9 0 -15.6 0 -23.7 c 5.6 0 10.6 0 16.2 0 c 0 7.9 0 15.6 0 23.3 c 7 0.6 8 -0.2 8 -6.4 c 0 -5.5 0 -11 0 -16.8 c 2.6 0 5 0 7.8 0 c 0 7.2 0.4 14.5 -0.1 21.7 c -0.4 5.6 -5.6 9.8 -11.5 9.8 c -16.2 0.1 -32.3 0.2 -48.5 0 c -6 -0.1 -11.1 -4.6 -11.4 -10.5 c -0.4 -6.9 -0.1 -13.9 -0.1 -21.1 C 265.7 430.2 268 430.2 271 430.2 z"/>
	<path fill-rule="evenodd" clip-rule="evenodd" d="M 294.8 430.3 c 0 5.3 0 10.2 0 15.4 c -5.1 0 -10.1 0 -15.4 0 c 0 -4.9 0 -10 0 -15.4 C 284.3 430.3 289.3 430.3 294.8 430.3 z"/>
	<path fill-rule="evenodd" clip-rule="evenodd" fill="none" d="M 279 394.1 c 4.2 0 7.8 0 11.9 0 c -1.3 6.4 -2.5 12.5 -3.9 18.6 c -0.9 3.7 -3.3 5.8 -7.3 5.1 c -4.2 -0.7 -4.4 -3.7 -3.7 -7.2 C 277.1 405.2 278 399.8 279 394.1 z"/>
	<path fill-rule="evenodd" clip-rule="evenodd" fill="none" d="M 307 394.1 c 4.1 0 7.8 0 11.9 0 c 1 5.6 1.9 11.1 3 16.6 c 0.7 3.3 0.4 6.1 -3.5 6.9 c -3.9 0.8 -6.6 -1 -7.5 -4.8 C 309.5 406.8 308.4 400.6 307 394.1 z"/>
</g>
</svg>
