<?xml version="1.0" encoding="UTF-8"?>
<svg width="169px" height="178px" viewBox="0 0 169 178" version="1.1" xmlns="http://www.w3.org/2000/svg" xmlns:xlink="http://www.w3.org/1999/xlink">
    <!-- Generator: Sketch 55.1 (78136) - https://sketchapp.com -->
    <title>icon</title>
    <desc>Created with Sketch.</desc>
    <g id="SVGs" stroke="none" stroke-width="1" fill="none" fill-rule="evenodd">
        <g id="icon">
            <path d="M0,170.514325 C0,113.773149 0,57.0329748 0,0 C24.7968355,0 49.5947,0 74.39205,0 C60.0932088,2.46853094 52.3762594,11.9687714 48.1576125,24.3890056 C45.4094976,32.4793004 43.7249202,40.9569924 42.1648595,49.3671152 C41.1502026,54.8382246 41.2170918,60.498528 40.7951756,66.124296 C44.084578,66.124296 46.569767,66.124296 49.2088011,66.124296 C49.6363771,61.2002474 49.9059918,56.5204493 50.474035,51.8771887 C51.8385736,40.7032322 53.9286022,29.6959467 59.7705973,19.7527521 C62.7440771,14.691563 66.5737379,10.4587231 72.7728182,9.16940121 C80.5818687,7.5457365 87.8743292,10.472237 92.0682787,18.8793566 C95.9848954,26.7284041 98.6558305,35.3077003 100.76181,43.8264344 C102.539003,51.014304 102.720118,58.5755564 103.62415,66.1037749 C106.259583,66.1037749 108.864658,66.1037749 111.644674,66.1037749 C111.478994,53.7215797 110.075351,41.8013581 106.548235,30.2084722 C102.195295,15.9008028 95.550116,3.43702391 78.666781,0 C111.444521,0 144.22226,0 177,0 C177,59.3328328 177,118.667167 177,178 C118.000172,178 58.9998285,178 0,178 C0,176.891363 0,175.781726 0,174.673589 C1.27552456,174.633548 2.56802867,174.71313 3.82245743,174.536449 C22.1269295,171.951799 40.4247126,169.32911 58.7260975,166.72494 C68.9642531,165.267446 79.1432375,163.036158 89.5810315,165.575261 C93.388053,166.502212 97.365899,166.76448 101.52023,167.366598 C101.52023,164.539699 101.52023,162.127226 101.52023,159.502535 C98.9558026,159.106128 96.5956448,158.589098 94.2082168,158.400405 C86.7356701,157.811301 79.1236853,156.241692 71.7977802,157.045516 C51.305004,159.294822 30.9295411,162.552162 10.503654,165.378559 C9.7349434,165.485169 8.91683769,165.249928 8.02463939,165.16484 C10.3024721,142.593699 12.5468602,120.272813 14.8118296,97.9539303 C16.1547578,84.7258678 17.682403,71.5123202 18.7999663,58.2667398 C19.1416155,54.2210918 20.1717083,52.2410618 24.813815,52.7335667 C28.879646,53.164008 33.0319184,52.8236591 37.380742,52.8236591 C37.6904902,50.5087857 37.9529014,48.5472746 38.2286905,46.4836588 C29.5320725,46.4836588 21.3546171,46.4836588 13.0866041,46.4836588 C12.7094523,49.8115709 12.3312713,52.8266622 12.0297556,55.8492612 C8.77997221,88.3716057 5.5708368,120.896953 2.2747455,153.414793 C1.69589712,159.131655 0.767681583,164.814982 0,170.514325 Z M139.34244,176.755724 C145.750935,176.755724 152.160458,176.804775 158.567924,176.74221 C165.269187,176.677144 168.831292,173.26915 168.854446,166.693908 C168.898695,154.227627 168.842611,141.759844 168.729929,129.293562 C168.673845,123.122735 165.327844,119.517039 159.111784,119.432452 C146.012317,119.254269 132.906675,119.252267 119.808237,119.432452 C113.600924,119.517039 109.998172,123.125238 109.92871,129.155921 C109.782068,141.759844 109.789786,154.368271 109.91739,166.973194 C109.980677,173.232612 113.671929,176.650116 120.117985,176.736204 C126.524936,176.821792 132.933945,176.754223 139.34244,176.755724 Z M114.715914,46.3350064 C114.530683,52.8166519 114.530683,52.818654 120.48639,52.8221575 C125.272051,52.8246601 130.057712,52.8221575 135.117619,52.8221575 C137.143845,73.0068525 139.116046,92.6524948 141.090819,112.324164 C143.828129,112.324164 146.260321,112.324164 149.086645,112.324164 C146.913262,90.0928705 144.782586,68.2805067 142.638017,46.3350064 C133.097052,46.3350064 124.027913,46.3350064 114.715914,46.3350064 Z M98.6656066,53.1384819 C97.4631456,50.5678462 100.187077,46.4000731 95.6123743,46.2874576 C82.4069133,45.9641261 69.18756,46.1738412 55.7448997,46.1738412 C55.3708351,48.5763044 55.0379329,50.7185007 54.6612956,53.1384819 C69.3012715,53.1384819 83.6057726,53.1384819 98.6656066,53.1384819 Z" id="Shape"></path>
            <path d="M0,170.846898 C0.770792576,165.155999 1.70339473,159.481093 2.28549563,153.772702 C5.5971638,121.303041 8.82146514,88.8258843 12.0866066,56.351726 C12.3895472,53.3336053 12.7695154,50.3229813 13.1484496,47 C21.4555361,47 29.6716369,47 38.409354,47 C38.1317446,49.0605583 37.8680932,51.0191631 37.5573982,53.3306067 C33.1880227,53.3306067 29.0166442,53.6704514 24.9310817,53.2406478 C20.267037,52.7493724 19.2320761,54.725969 18.8888123,58.7656227 C17.7659676,71.9915781 16.231103,85.185548 14.8818282,98.3940113 C12.6061549,120.679326 10.3511601,142.96764 8.06256272,165.505339 C8.95846046,165.590301 9.78094939,165.825193 10.5532929,165.718742 C31.0757098,162.896532 51.5479813,159.644018 72.1370866,157.398045 C79.4976128,156.595411 87.1455708,158.162695 94.6534317,158.750926 C97.0521424,158.93934 99.4234539,159.455604 102,159.851423 C102,162.472226 102,164.880625 102,167.703835 C97.8260367,167.102609 93.8293919,166.840229 90.004379,165.915152 C79.5167405,163.379811 69.2901686,165.607793 59.0036289,167.063127 C40.6157542,169.663439 22.2314983,172.282242 3.84052183,174.863063 C2.58016482,175.039982 1.28103555,174.960018 0,175 C0,173.615133 0,172.231265 0,170.846898 Z" id="Path" fill="#000000" fill-rule="nonzero"></path>
            <path d="M78.9520541,0 C95.8712535,3.4310628 102.530549,15.8714131 106.892735,30.1516883 C110.427344,41.7227828 111.833969,53.6205975 112,65.9795175 C109.214079,65.9795175 106.60347,65.9795175 103.962439,65.9795175 C103.056486,58.46545 102.874986,50.9184108 101.094018,43.7440524 C98.9835654,35.2413313 96.306441,26.6781619 92.3820199,18.8438685 C88.1791615,10.452552 80.87121,7.53155253 73.0455711,9.15216519 C66.8333224,10.438564 62.9955264,14.6634472 60.0157302,19.7156222 C54.1613252,29.6401263 52.0668569,40.6267211 50.6994197,51.7796735 C50.1301699,56.4147056 49.8599824,61.0852074 49.4314981,66 C46.7873737,66 44.2963899,66 41,66 C41.4228124,60.3848069 41.3557812,54.7346438 42.3725934,49.2743182 C43.9359681,40.8800042 45.624124,32.418248 48.3780765,24.3431608 C52.6062006,11.9467728 60.3395426,2.46389076 74.6682426,0 C76.0954923,0 77.5237732,0 78.9520541,0 Z" id="Path" fill="#000000" fill-rule="nonzero"></path>
            <path d="M139.497449,177.97551 C133.094293,177.9745 126.690623,178.042678 120.289009,177.955814 C113.848323,177.868949 110.160146,174.420645 110.096912,168.104813 C109.969928,155.386285 109.961703,142.664222 110.108222,129.946704 C110.177626,123.861668 113.777377,120.220949 119.979519,120.1356 C133.067045,119.953791 146.16177,119.955811 159.250324,120.1356 C165.461206,120.220949 168.804419,123.859143 168.860457,130.085586 C168.973045,142.663717 169.029083,155.243868 168.98487,167.823009 C168.961735,174.457511 165.402598,177.896221 158.706917,177.961874 C152.305304,178.025002 145.900605,177.976015 139.497449,177.97551 Z M139.668645,160.061293 C145.816292,160.013316 150.727521,155.199426 150.766592,149.181558 C150.807207,142.955116 145.804468,138.057392 139.455807,138.108904 C133.197628,138.160922 128.169184,143.260655 128.323415,149.402254 C128.473533,155.376689 133.511231,160.108766 139.668645,160.061293 Z" id="Shape" fill="#000000" fill-rule="nonzero"></path>
            <path d="M115.052238,47 C124.52057,47 133.741966,47 143.443109,47 C145.623682,68.9491061 147.790653,90.7650539 150,113 C147.126227,113 144.653202,113 141.869937,113 C139.861487,93.3250988 137.856176,73.6757279 135.796455,53.488217 C130.651601,53.488217 125.785596,53.49072 120.919591,53.488217 C114.863897,53.4842123 114.863897,53.4827105 115.052238,47 Z" id="Path" fill="#000000" fill-rule="nonzero"></path>
            <path d="M99,53 C83.9416414,53 69.6390562,53 55,53 C55.3766004,50.5912915 55.70947,48.4586327 56.083498,46.0663676 C69.5248413,46.0663676 82.7428996,45.8580846 95.9470669,46.1794783 C100.521322,46.2915923 97.7976568,50.4408095 99,53 Z" id="Path" fill="#000000" fill-rule="nonzero"></path>
            <path d="M139.628333,159.999645 C133.318665,160.04722 128.157358,155.304937 128.003541,149.318121 C127.845509,143.163275 132.997861,138.052035 139.41025,138.000411 C145.91535,137.948282 151.041363,142.857076 150.999748,149.096949 C150.959714,155.127291 145.927466,159.951564 139.628333,159.999645 Z" id="Path" fill="#FFFFFF"></path>
        </g>
    </g>
</svg>