<?xml version="1.0" encoding="UTF-8"?>
<svg width="97px" height="105px" viewBox="0 0 97 105" version="1.1" xmlns="http://www.w3.org/2000/svg" xmlns:xlink="http://www.w3.org/1999/xlink">
    <!-- Generator: Sketch 55.1 (78136) - https://sketchapp.com -->
    <title>icon copy</title>
    <desc>Created with Sketch.</desc>
    <g id="SVGs" stroke="none" stroke-width="1" fill="none" fill-rule="evenodd">
        <g id="icon-copy">
            <path d="M0.5,100.584293 C0.5,67.1133747 0.5,33.6430469 0.5,0 C13.9491311,0 27.3988204,0 40.8482305,0 C33.0929268,1.45615589 28.9074627,7.06023029 26.619383,14.386773 C25.1288801,19.1591379 24.215211,24.1600236 23.3690763,29.1210511 C22.818754,32.3483909 22.8550328,35.6873339 22.6261969,39.0059049 C24.4102796,39.0059049 25.7581787,39.0059049 27.1895192,39.0059049 C27.4214249,36.1012696 27.5676566,33.3407145 27.8757478,30.6017124 C28.6158365,24.0103336 29.7494113,17.5172719 32.9179511,11.6519043 C34.5306859,8.66637142 36.6077901,6.16947151 39.9700031,5.40891645 C44.2054203,4.4511367 48.1606531,6.17744317 50.4353376,11.1366991 C52.5596043,15.7667552 54.008247,20.827576 55.150473,25.852672 C56.1143743,30.0927074 56.2126063,34.5529968 56.7029291,38.9937998 C58.1323161,38.9937998 59.5452381,38.9937998 61.0530433,38.9937998 C60.9631834,31.6896959 60.2018855,24.6581045 58.2888733,17.8196044 C55.9279568,9.37968704 52.3237917,2.02745793 43.1667287,0 C60.9444858,0 78.7222429,0 96.5,0 C96.5,34.9997048 96.5,70.0002952 96.5,105 C64.500093,105 32.499907,105 0.5,105 C0.5,104.346029 0.5,103.691467 0.5,103.037792 C1.19180993,103.014172 1.89282911,103.061116 2.57319725,102.956894 C12.5010465,101.432241 22.4252679,99.8851491 32.3514427,98.3489814 C37.9043407,97.4892235 43.4251458,96.1730145 49.0863222,97.6708001 C51.1511474,98.2175967 53.3086232,98.3723059 55.5618194,98.7274875 C55.5618194,97.059935 55.5618194,95.6368468 55.5618194,94.088574 C54.1709438,93.8547387 52.8908582,93.549749 51.595982,93.4384411 C47.5430753,93.0909359 43.4145412,92.1650428 39.4411689,92.6392087 C28.3264429,93.9660466 17.2753443,95.8875111 6.19689711,97.5547682 C5.7799693,97.6176557 5.33625095,97.4788899 4.85234679,97.428698 C6.08778147,84.1142604 7.30507671,70.9474461 8.53353469,57.7818128 C9.26190255,49.9787422 10.0904559,42.1842338 10.6965919,34.3708296 C10.8818931,31.9843519 11.4405876,30.8163567 13.9583404,31.1068792 C16.1635368,31.3607913 18.4156168,31.1600236 20.7743007,31.1600236 C20.9422998,29.7945084 21.0846245,28.6374373 21.234205,27.4201358 C16.5173952,27.4201358 12.0821652,27.4201358 7.5978192,27.4201358 C7.39326225,29.38323 7.18814716,31.1617951 7.02461323,32.9447889 C5.26201883,52.129318 3.52147081,71.3156185 1.73376027,90.4974904 C1.41980861,93.8697963 0.916369672,97.2223206 0.5,100.584293 Z M76.0755606,104.266017 C79.5513544,104.266017 83.0277062,104.294951 86.5029418,104.258045 C90.1375254,104.219663 92.0695141,102.20933 92.0820722,98.3306761 C92.1060721,90.9769708 92.0756536,83.6223797 92.0145377,76.2686743 C91.9841193,72.6285799 90.1693391,70.5016239 86.7979169,70.4517272 C79.693121,70.3466194 72.5849763,70.3454384 65.4807385,70.4517272 C62.1140604,70.5016239 60.1600252,72.6300561 60.122351,76.1874815 C60.0428166,83.6223797 60.0470026,91.059935 60.1162115,98.4954237 C60.1505369,102.187777 62.1525718,104.20372 65.6487375,104.254503 C69.123694,104.30499 72.5997669,104.265131 76.0755606,104.266017 Z M62.7188011,27.3324476 C62.6183365,31.1558902 62.6183365,31.1570712 65.8485503,31.1591379 C68.4441631,31.1606141 71.0397759,31.1591379 73.7841321,31.1591379 C74.8831024,43.06584 75.9527706,54.6545616 77.0238342,66.258636 C78.5084767,66.258636 79.8276318,66.258636 81.3605531,66.258636 C80.1817693,53.1446708 79.0261481,40.277827 77.8629921,27.3324476 C72.6882315,27.3324476 67.7693763,27.3324476 62.7188011,27.3324476 Z M54.0135493,31.3457337 C53.3613671,29.8293475 54.8387538,27.3708296 52.357559,27.3043992 C45.195275,27.1136699 38.0254562,27.2373782 30.7345219,27.2373782 C30.5316394,28.6545616 30.3510823,29.9182167 30.1468044,31.3457337 C38.0871303,31.3457337 45.8455038,31.3457337 54.0135493,31.3457337 Z" id="Shape" fill="#FFFFFF"></path>
            <path d="M1.5,100.566542 C1.91562345,97.2320307 2.41849716,93.9068902 2.73237509,90.5621298 C4.51807852,71.5369382 6.25667238,52.5073541 8.01728787,33.4795269 C8.1806382,31.7110969 8.38552299,29.9470594 8.58985028,28 C13.0691616,28 17.4994121,28 22.2109262,28 C22.0612348,29.2073584 21.9190699,30.3549784 21.7515382,31.7093399 C19.3955024,31.7093399 17.1462297,31.9084676 14.9432303,31.6566296 C12.4283043,31.3687729 11.8702371,32.526935 11.6851439,34.8939196 C11.0796884,42.6435028 10.2520653,50.3743445 9.52451522,58.1136785 C8.29743647,71.1714802 7.08150791,84.2310389 5.84746029,97.4367223 C6.33054241,97.4865042 6.77404134,97.6241366 7.19050105,97.5617628 C18.2565102,95.908124 29.2954801,94.0023544 40.3974486,92.6863543 C44.3663599,92.2160614 48.4902588,93.1343917 52.5386151,93.4790584 C53.8320375,93.5894572 55.1106859,93.8919556 56.5,94.1238809 C56.5,95.6595072 56.5,97.0706786 56.5,98.7249031 C54.2493335,98.3726227 52.09428,98.2188843 50.031773,97.6768469 C44.3766738,96.1912954 38.8623458,97.4967534 33.3156822,98.3494887 C23.4006518,99.8731088 13.4875726,101.407564 3.57086961,102.919763 C2.89126534,103.023427 2.19075446,102.976573 1.5,103 C1.5,102.188554 1.5,101.377695 1.5,100.566542 Z" id="Path" fill="#000000" fill-rule="nonzero"></path>
            <path d="M43.812367,0 C52.8677132,2.0274462 56.4318431,9.37856229 58.7665345,17.8169067 C60.6582968,24.6543716 61.4111382,31.6848985 61.5,38.9878967 C60.0089435,38.9878967 58.6117163,38.9878967 57.1982069,38.9878967 C56.7133307,34.5477659 56.6161899,30.0881518 55.6629956,25.8487583 C54.5334575,20.824423 53.1006304,15.7643684 51.000236,11.1350132 C48.7508188,6.17650799 44.8395208,4.45046286 40.6511507,5.40809761 C37.3262852,6.16824234 35.2722536,8.66476425 33.6774331,11.6501404 C30.5440896,17.5146201 29.4231065,24.0066988 28.6912387,30.5970798 C28.3865698,33.3359624 28.2419624,36.0958043 28.0126328,39 C26.5974676,39 25.264265,39 23.5,39 C23.726294,35.6819314 23.6904181,32.3431986 24.2346275,29.1166426 C25.0713632,24.1563661 25.9748833,19.1562375 27.4488297,14.384595 C29.7117693,7.05945668 33.8507411,1.45593545 41.5196228,0 C42.2835029,0 43.047935,0 43.812367,0 Z" id="Path" fill="#000000" fill-rule="nonzero"></path>
            <path d="M76.4986164,103.985644 C73.0257182,103.985051 69.5525411,104.025018 66.0804794,103.974098 C62.5872262,103.923177 60.5868591,101.901757 60.5525623,98.199373 C60.4836899,90.7436842 60.4792285,83.2859231 60.5586967,75.8308265 C60.5963395,72.2637365 62.5487468,70.1295219 65.9126203,70.0794897 C73.0109399,69.9729122 80.1131632,69.9740964 87.2120404,70.0794897 C90.5806541,70.1295219 92.3939224,72.2622562 92.4243155,75.9122398 C92.4853805,83.2856271 92.5157736,90.6601985 92.4917938,98.0341779 C92.4792461,101.923369 90.5488668,103.939164 86.9173111,103.97765 C83.4452494,104.014656 79.9715146,103.98594 76.4986164,103.985644 Z M76.5914687,93.4842064 C79.9257856,93.4560818 82.5895027,90.6341463 82.6106942,87.1064307 C82.6327222,83.4564472 79.9193724,80.5853675 76.4760307,80.6155645 C73.0817641,80.6460575 70.3544725,83.6355566 70.4381232,87.235804 C70.5195432,90.7380593 73.2518539,93.512035 76.5914687,93.4842064 Z" id="Shape" fill="#000000" fill-rule="nonzero"></path>
            <path d="M62.5283579,27 C67.6683097,27 72.6742103,27 77.9405451,27 C79.1242846,39.9699264 80.3006401,52.8611682 81.5,66 C79.9399516,66 78.5974524,66 77.0865372,66 C75.9962357,54.373922 74.9076384,42.7629302 73.7895043,30.8339464 C70.9965832,30.8339464 68.3550377,30.8354255 65.7134921,30.8339464 C62.4261155,30.83158 62.4261155,30.8306926 62.5283579,27 Z" id="Path" fill="#000000" fill-rule="nonzero"></path>
            <path d="M54.5,31 C46.2863499,31 38.4849397,31 30.5,31 C30.7054184,29.6235951 30.8869836,28.404933 31.0909989,27.0379244 C38.4226407,27.0379244 45.6324907,26.9189055 52.8347637,27.102559 C55.3298119,27.1666242 53.8441764,29.5376054 54.5,31 Z" id="Path" fill="#000000" fill-rule="nonzero"></path>
            <path d="M76.5669564,93.9997903 C73.2749554,94.0279026 70.5820998,91.2256444 70.5018473,87.6879803 C70.4193961,84.051026 73.1075795,81.0307479 76.4531737,81.0002431 C79.8471393,80.9694392 82.5215809,83.8700904 82.4998687,87.557288 C82.4789811,91.1206719 79.8534606,93.971379 76.5669564,93.9997903 Z" id="Path" fill="#FFFFFF"></path>
        </g>
    </g>
</svg>