<?xml version="1.0" encoding="utf-8"?>
<!-- Generator: Adobe Illustrator 16.0.0, SVG Export Plug-In . SVG Version: 6.00 Build 0)  -->
<!DOCTYPE svg PUBLIC "-//W3C//DTD SVG 1.1//EN" "http://www.w3.org/Graphics/SVG/1.1/DTD/svg11.dtd">
<svg version="1.1" id="Layer_1" xmlns="http://www.w3.org/2000/svg" xmlns:xlink="http://www.w3.org/1999/xlink" x="0px" y="0px"
	 width="595.28px" height="841.89px" viewBox="0 0 595.28 841.89" enable-background="new 0 0 595.28 841.89" xml:space="preserve">
<path fill-rule="evenodd" clip-rule="evenodd" fill="#FFFFFF" d="M90.295,546.231c0-113.366,0-226.73,0-340.679
	c48.192,0,96.387,0,144.581,0c-27.79,4.932-42.788,23.913-50.987,48.728c-5.341,16.164-8.615,33.102-11.647,49.905
	c-1.972,10.931-1.842,22.24-2.662,33.48c6.393,0,11.223,0,16.352,0c0.831-9.838,1.355-19.188,2.459-28.465
	c2.652-22.325,6.714-44.317,18.068-64.183c5.779-10.112,13.222-18.569,25.27-21.145c15.177-3.244,29.35,2.603,37.501,19.4
	c7.612,15.682,12.803,32.823,16.896,49.843c3.454,14.361,3.806,29.468,5.563,44.509c5.122,0,10.185,0,15.588,0
	c-0.322-24.739-3.05-48.555-9.905-71.717c-8.46-28.586-21.375-53.488-54.188-60.355c63.704,0,127.408,0,191.112,0
	c0,118.544,0,237.091,0,355.635c-114.667,0-229.335,0-344.002,0c0-2.215,0-4.432,0-6.646c2.479-0.08,4.991,0.079,7.429-0.274
	c35.575-5.164,71.137-10.404,106.706-15.607c19.898-2.912,39.681-7.37,59.967-2.297c7.399,1.852,15.13,2.376,23.204,3.579
	c0-5.648,0-10.468,0-15.712c-4.984-0.792-9.571-1.825-14.211-2.202c-14.523-1.177-29.317-4.313-43.555-2.707
	c-39.828,4.494-79.428,11.002-119.126,16.649c-1.494,0.213-3.084-0.257-4.818-0.427c4.427-45.096,8.789-89.692,13.191-134.284
	c2.61-26.429,5.579-52.829,7.751-79.293c0.664-8.083,2.666-12.039,11.688-11.055c7.902,0.86,15.972,0.18,24.424,0.18
	c0.602-4.625,1.112-8.544,1.648-12.667c-16.902,0-32.795,0-48.864,0c-0.733,6.649-1.468,12.673-2.054,18.712
	c-6.316,64.978-12.553,129.962-18.959,194.931C93.59,523.489,91.786,534.844,90.295,546.231z M361.108,558.701
	c12.455,0,24.912,0.098,37.365-0.027c13.024-0.13,19.947-6.939,19.992-20.076c0.086-24.907-0.023-49.817-0.242-74.724
	c-0.109-12.329-6.612-19.533-18.693-19.702c-25.459-0.356-50.93-0.36-76.387,0c-12.064,0.169-19.066,7.378-19.201,19.427
	c-0.285,25.182-0.27,50.373-0.022,75.557c0.123,12.506,7.297,19.334,19.825,19.506C336.197,558.833,348.653,558.698,361.108,558.701
	z M313.246,298.128c-0.36,12.949-0.36,12.953,11.215,12.96c9.301,0.005,18.602,0,28.436,0c3.938,40.328,7.771,79.579,11.609,118.882
	c5.32,0,10.047,0,15.54,0c-4.224-44.417-8.365-87.997-12.533-131.843C348.97,298.128,331.344,298.128,313.246,298.128z
	 M282.052,311.72c-2.337-5.136,2.957-13.463-5.934-13.688c-25.665-0.646-51.357-0.227-77.483-0.227
	c-0.727,4.8-1.374,9.08-2.106,13.915C224.982,311.72,252.783,311.72,282.052,311.72z"/>
<path fill-rule="evenodd" clip-rule="evenodd" d="M90.295,546.231c1.491-11.387,3.295-22.742,4.421-34.164
	c6.406-64.969,12.643-129.953,18.959-194.931c0.586-6.039,1.321-12.063,2.054-18.712c16.069,0,31.962,0,48.864,0
	c-0.537,4.123-1.047,8.042-1.648,12.667c-8.452,0-16.521,0.68-24.424-0.18c-9.022-0.983-11.024,2.972-11.688,11.055
	c-2.172,26.464-5.141,52.864-7.751,79.293c-4.402,44.591-8.764,89.188-13.191,134.284c1.733,0.17,3.324,0.64,4.818,0.427
	c39.698-5.647,79.299-12.155,119.126-16.649c14.238-1.606,29.032,1.53,43.555,2.707c4.64,0.377,9.227,1.41,14.211,2.202
	c0,5.244,0,10.063,0,15.712c-8.074-1.203-15.805-1.728-23.204-3.579c-20.287-5.073-40.069-0.615-59.967,2.297
	c-35.569,5.203-71.131,10.443-106.706,15.607c-2.438,0.354-4.951,0.194-7.429,0.274C90.295,551.77,90.295,549.001,90.295,546.231z"
	/>
<path fill-rule="evenodd" clip-rule="evenodd" d="M243.186,205.552c32.813,6.868,45.728,31.77,54.188,60.355
	c6.855,23.162,9.583,46.978,9.905,71.717c-5.403,0-10.466,0-15.588,0c-1.757-15.041-2.109-30.148-5.563-44.509
	c-4.093-17.02-9.285-34.161-16.896-49.843c-8.151-16.797-22.324-22.644-37.501-19.4c-12.048,2.575-19.491,11.032-25.27,21.145
	c-11.354,19.866-15.416,41.858-18.068,64.183c-1.104,9.278-1.628,18.627-2.459,28.465c-5.128,0-9.959,0-16.352,0
	c0.82-11.24,0.69-22.55,2.662-33.48c3.032-16.803,6.306-33.741,11.647-49.905c8.2-24.814,23.198-43.796,50.987-48.728
	C237.646,205.552,240.416,205.552,243.186,205.552z"/>
<path fill-rule="evenodd" clip-rule="evenodd" d="M361.108,558.7c-12.455-0.002-24.911,0.133-37.363-0.039
	c-12.528-0.172-19.702-7-19.825-19.506c-0.247-25.184-0.263-50.375,0.022-75.557c0.135-12.049,7.137-19.258,19.201-19.427
	c25.457-0.36,50.928-0.356,76.387,0c12.081,0.169,18.584,7.373,18.693,19.702c0.219,24.906,0.328,49.816,0.242,74.724
	c-0.045,13.137-6.968,19.946-19.992,20.076C386.021,558.798,373.563,558.701,361.108,558.7z M361.441,523.228
	c11.958-0.095,21.511-9.627,21.587-21.543c0.079-12.329-9.652-22.027-22.001-21.925c-12.173,0.103-21.954,10.201-21.654,22.362
	C339.665,513.952,349.464,523.322,361.441,523.228z"/>
<path fill-rule="evenodd" clip-rule="evenodd" d="M313.246,298.128c18.098,0,35.724,0,54.267,0
	c4.168,43.846,8.31,87.426,12.533,131.843c-5.493,0-10.22,0-15.54,0c-3.839-39.303-7.672-78.555-11.609-118.882
	c-9.834,0-19.135,0.005-28.436,0C312.886,311.081,312.886,311.078,313.246,298.128z"/>
<path fill-rule="evenodd" clip-rule="evenodd" d="M282.052,311.72c-29.269,0-57.069,0-85.523,0
	c0.732-4.834,1.379-9.114,2.106-13.915c26.126,0,51.818-0.418,77.483,0.227C285.009,298.257,279.715,306.584,282.052,311.72z"/>
<path fill-rule="evenodd" clip-rule="evenodd" fill="#FFFFFF" d="M361.441,523.228c-11.978,0.094-21.776-9.276-22.068-21.105
	c-0.3-12.161,9.481-22.26,21.654-22.362c12.349-0.103,22.08,9.596,22.001,21.925C382.952,513.601,373.399,523.133,361.441,523.228z"
	/>
</svg>
