<?xml version="1.0" encoding="utf-8"?>
<!-- Generator: Adobe Illustrator 16.0.0, SVG Export Plug-In . SVG Version: 6.00 Build 0)  -->
<!DOCTYPE svg PUBLIC "-//W3C//DTD SVG 1.1//EN" "http://www.w3.org/Graphics/SVG/1.1/DTD/svg11.dtd">
<svg version="1.1" id="Layer_1" xmlns="http://www.w3.org/2000/svg" xmlns:xlink="http://www.w3.org/1999/xlink" x="0px" y="0px"
	 width="595.28px" height="841.89px" viewBox="0 0 595.28 841.89" enable-background="new 0 0 595.28 841.89" xml:space="preserve">
<g>
	<path fill-rule="evenodd" clip-rule="evenodd" d="M292,369.89c4.667,0,9.334,0,14,0c0.911,0.318,1.8,0.746,2.736,0.938
		c15.086,3.106,27.021,11.025,34.644,24.37c3.451,6.043,5.135,13.097,7.62,19.691c0,4.667,0,9.333,0,14
		c-0.323,0.902-0.764,1.781-0.953,2.711c-2.795,13.785-9.627,25.264-21.49,32.708c-6.833,4.287-14.994,6.458-22.557,9.581
		c-4.666,0-9.333,0-14,0c-0.739-0.302-1.453-0.743-2.222-0.884c-12.199-2.239-22.238-8.225-30.398-17.469
		c-6.757-7.654-9.959-16.973-12.379-26.647c0-4.667,0-9.333,0-14c0.302-0.743,0.733-1.461,0.886-2.233
		c3.604-18.271,14.079-31.105,30.971-38.634C283.024,372.166,287.608,371.243,292,369.89z M299.124,465.884
		c24.046-0.058,43.813-19.841,43.857-43.893c0.044-24.41-19.676-44.104-44.118-44.062c-24.378,0.043-44.004,19.88-43.85,44.322
		C255.165,446.287,275.036,465.942,299.124,465.884z"/>
	<path fill-rule="evenodd" clip-rule="evenodd" fill="#FFFFFF" d="M351,414.89c-2.485-6.595-4.169-13.648-7.62-19.691
		c-7.622-13.345-19.558-21.264-34.644-24.37c-0.937-0.192-1.825-0.62-2.736-0.938c15,0,30,0,45,0C351,384.89,351,399.89,351,414.89z
		"/>
	<path fill-rule="evenodd" clip-rule="evenodd" fill="#FFFFFF" d="M247,428.89c2.42,9.675,5.622,18.993,12.379,26.647
		c8.161,9.244,18.2,15.229,30.398,17.469c0.769,0.141,1.483,0.582,2.222,0.884c-14.917,0-29.834,0-45,0
		C247,458.891,247,443.89,247,428.89z"/>
	<path fill-rule="evenodd" clip-rule="evenodd" fill="#FFFFFF" d="M306,473.89c7.563-3.123,15.724-5.294,22.557-9.581
		c11.863-7.444,18.695-18.923,21.49-32.708c0.189-0.93,0.63-1.809,0.953-2.711c0,15,0,30,0,45C336,473.89,321,473.89,306,473.89z"/>
	<path fill-rule="evenodd" clip-rule="evenodd" fill="#FFFFFF" d="M292,369.89c-4.392,1.353-8.976,2.275-13.143,4.133
		c-16.892,7.528-27.368,20.362-30.971,38.634c-0.152,0.772-0.584,1.49-0.886,2.233c0-15,0-30,0-45C262,369.89,277,369.89,292,369.89
		z"/>
	<path fill-rule="evenodd" clip-rule="evenodd" fill="#FFFFFF" d="M299.124,465.884c-24.088,0.058-43.959-19.598-44.111-43.632
		c-0.154-24.442,19.472-44.279,43.85-44.322c24.442-0.043,44.162,19.651,44.118,44.062
		C342.938,446.043,323.17,465.827,299.124,465.884z M325.2,430.144c-6.874-0.45-6.874-0.45-10.601,4.207
		c-7.229,9.033-20.938,10.058-29.296,2.189c-8.425-7.932-8.385-21.618,0.086-29.413c8.479-7.801,22.535-6.958,29.117,2.524
		c3.112,4.483,6.327,4.685,10.723,3.869c-3.499-12.976-16.685-21.357-30.113-19.386c-14.091,2.069-24.224,13.867-24.103,28.063
		c0.121,14.103,10.625,25.8,24.718,27.524C309.049,451.353,322.063,442.812,325.2,430.144z"/>
	<path fill-rule="evenodd" clip-rule="evenodd" d="M325.2,430.144c-3.137,12.668-16.151,21.209-29.469,19.578
		c-14.093-1.725-24.597-13.422-24.718-27.524c-0.121-14.195,10.011-25.993,24.103-28.063c13.428-1.972,26.614,6.41,30.113,19.386
		c-4.396,0.815-7.61,0.614-10.723-3.869c-6.582-9.482-20.638-10.325-29.117-2.524c-8.471,7.795-8.511,21.481-0.086,29.413
		c8.358,7.868,22.068,6.844,29.296-2.189C318.326,429.694,318.326,429.694,325.2,430.144z"/>
</g>
</svg>
