<?xml version="1.0" encoding="utf-8"?>
<!-- Generator: Adobe Illustrator 16.0.0, SVG Export Plug-In . SVG Version: 6.00 Build 0)  -->
<!DOCTYPE svg PUBLIC "-//W3C//DTD SVG 1.1//EN" "http://www.w3.org/Graphics/SVG/1.1/DTD/svg11.dtd">
<svg version="1.1" id="Layer_1" xmlns="http://www.w3.org/2000/svg" xmlns:xlink="http://www.w3.org/1999/xlink" x="0px" y="0px"
	 width="595.28px" height="841.89px" viewBox="0 0 595.28 841.89" enable-background="new 0 0 595.28 841.89" xml:space="preserve">
<g>
	<path fill-rule="evenodd" clip-rule="evenodd" fill="#FFFFFF" d="M359.468,506.522c-33.333,0-66.666,0-100,0
		c0-33.333,0-66.667,0-100c33.333,0,66.666,0,100,0C359.468,439.855,359.468,473.189,359.468,506.522z M309.49,503.173
		c2.315-0.771,4.679-2.458,6.521-2.009c6.406,1.564,12.967-0.403,18.822,0.472c5.358,0.801,8.683,0.126,11.15-3.477
		c1.247-1.819,0.012-5.285,0.061-8.004c0.023-1.369,0.244-2.784,0.658-4.09c1.464-4.619-0.521-8.993-0.655-13.332
		c-0.136-4.394,2.282-8.957,0.631-13.788c-0.503-1.47-0.435-3.377,0.024-4.886c1.409-4.647,0.256-8.805-0.843-13.386
		c-1.024-4.268,0.51-9.127,0.742-13.734c0.062-1.204-1.198-2.953-0.716-3.583c3.975-5.191,0.822-8.959-2.934-11.54
		c-1.781-1.226-5.526,0.836-8.021,0.131c-6.403-1.809-12.591-0.463-18.911-0.369c-4.355,0.064-8.826,0.12-13.143,0.003
		c-6.34-0.171-12.938,0.691-18.774-0.188c-5.387-0.812-8.68-0.036-11.169,3.487c-1.26,1.783-0.041,5.284-0.039,8.008
		c0.001,1.229,0.026,2.558-0.406,3.667c-1.85,4.752,0.192,9.22,0.396,13.765c0.195,4.367-2.301,8.951-0.62,13.786
		c0.509,1.463,0.405,3.374-0.048,4.891c-1.389,4.646-0.237,8.812,0.854,13.391c1.018,4.271-0.5,9.126-0.731,13.733
		c-0.061,1.204,1.178,2.947,0.693,3.582c-3.982,5.209-0.735,8.956,2.966,11.547c1.753,1.228,5.52-0.862,8.012-0.162
		c6.398,1.799,12.538,1.563,18.932,0.088C304.812,500.746,307.159,502.405,309.49,503.173z"/>
	<path fill-rule="evenodd" clip-rule="evenodd" d="M309.49,503.173c-2.331-0.769-4.679-2.428-6.546-1.997
		c-6.395,1.475-12.534,1.711-18.932-0.088c-2.493-0.7-6.259,1.39-8.012,0.162c-3.701-2.591-6.948-6.338-2.966-11.547
		c0.485-0.635-0.753-2.378-0.693-3.582c0.231-4.607,1.75-9.462,0.731-13.733c-1.091-4.579-2.243-8.744-0.854-13.391
		c0.453-1.517,0.557-3.428,0.048-4.891c-1.681-4.835,0.814-9.419,0.62-13.786c-0.203-4.545-2.245-9.013-0.396-13.765
		c0.432-1.109,0.407-2.438,0.406-3.667c-0.002-2.724-1.221-6.225,0.039-8.008c2.49-3.523,5.782-4.299,11.169-3.487
		c5.836,0.879,12.434,0.017,18.774,0.188c4.316,0.117,8.787,0.062,13.143-0.003c6.32-0.094,12.508-1.439,18.911,0.369
		c2.494,0.705,6.239-1.356,8.021-0.131c3.756,2.581,6.908,6.349,2.934,11.54c-0.482,0.63,0.777,2.379,0.716,3.583
		c-0.232,4.607-1.767,9.467-0.742,13.734c1.099,4.581,2.252,8.738,0.843,13.386c-0.459,1.509-0.527,3.416-0.024,4.886
		c1.651,4.831-0.767,9.395-0.631,13.788c0.134,4.339,2.119,8.713,0.655,13.332c-0.414,1.306-0.635,2.721-0.658,4.09
		c-0.049,2.719,1.187,6.185-0.061,8.004c-2.468,3.603-5.792,4.277-11.15,3.477c-5.855-0.875-12.416,1.093-18.822-0.472
		C314.169,500.715,311.806,502.403,309.49,503.173z M283.469,456.01c0,9.979,0.11,19.962-0.06,29.938
		c-0.059,3.452,1.065,4.672,4.58,4.635c14.303-0.15,28.61-0.146,42.913-0.003c3.461,0.035,4.648-1.093,4.626-4.593
		c-0.126-19.627-0.122-39.255-0.003-58.881c0.021-3.442-1.07-4.682-4.584-4.646c-14.304,0.147-28.61,0.146-42.914,0.001
		c-3.472-0.034-4.683,1.116-4.619,4.606C283.584,436.713,283.469,446.363,283.469,456.01z"/>
	<path fill-rule="evenodd" clip-rule="evenodd" fill="#FFFFFF" d="M283.469,456.01c0-9.647,0.116-19.297-0.061-28.941
		c-0.064-3.49,1.147-4.641,4.619-4.606c14.303,0.145,28.61,0.146,42.914-0.001c3.514-0.036,4.605,1.203,4.584,4.646
		c-0.119,19.626-0.123,39.254,0.003,58.881c0.022,3.5-1.165,4.628-4.626,4.593c-14.303-0.143-28.609-0.147-42.913,0.003
		c-3.515,0.037-4.639-1.183-4.58-4.635C283.579,475.972,283.469,465.99,283.469,456.01z M331.249,426.878
		c-14.777,0-29.15,0-43.384,0c0,20.063,0,39.767,0,59.375c14.655,0,28.911,0,43.384,0
		C331.249,466.402,331.249,446.817,331.249,426.878z"/>
	<path fill-rule="evenodd" clip-rule="evenodd" d="M331.249,426.878c0,19.938,0,39.523,0,59.375c-14.473,0-28.729,0-43.384,0
		c0-19.608,0-39.313,0-59.375C302.099,426.878,316.472,426.878,331.249,426.878z"/>
</g>
</svg>
