<?xml version="1.0" encoding="UTF-8"?>
<svg width="104px" height="105px" viewBox="0 0 104 105" version="1.1" xmlns="http://www.w3.org/2000/svg" xmlns:xlink="http://www.w3.org/1999/xlink">
    <!-- Generator: Sketch 55.1 (78136) - https://sketchapp.com -->
    <title>Landing v2-image5</title>
    <desc>Created with Sketch.</desc>
    <g id="SVGs" stroke="none" stroke-width="1" fill="none" fill-rule="evenodd">
        <g id="Landing-v2-image5" transform="translate(-1.000000, 0.000000)">
            <path d="M46,0.89 C50.667,0.89 55.334,0.89 60,0.89 C60.911,1.208 61.8,1.636 62.736,1.828 C77.822,4.934 89.757,12.853 97.38,26.198 C100.831,32.241 102.515,39.295 105,45.889 C105,50.556 105,55.222 105,59.889 C104.677,60.791 104.236,61.67 104.047,62.6 C101.252,76.385 94.42,87.864 82.557,95.308 C75.724,99.595 67.563,101.766 60,104.889 C55.334,104.889 50.667,104.889 46,104.889 C45.261,104.587 44.547,104.146 43.778,104.005 C31.579,101.766 21.54,95.78 13.38,86.536 C6.623,78.882 3.421,69.563 1.001,59.889 C1.001,55.222 1.001,50.556 1.001,45.889 C1.303,45.146 1.734,44.428 1.887,43.656 C5.491,25.385 15.966,12.551 32.858,5.022 C37.024,3.166 41.608,2.243 46,0.89 Z M53.124,96.884128 C77.17,96.826 96.937,77.043 96.9810735,52.991 C97.025,28.581 77.305,8.887 52.863,8.92893295 C28.485,8.972 8.859,28.809 9.013,53.251 C9.165,77.287 29.036,96.942 53.124,96.884128 Z" id="Shape" fill="#000000" fill-rule="nonzero"></path>
            <path d="M105,45.89 C102.515,39.295 100.831,32.242 97.38,26.199 C89.758,12.854 77.822,4.935 62.736,1.829 C61.799,1.637 60.911,1.209 60,0.891 C75,0.891 90,0.891 105,0.891 C105,15.89 105,30.89 105,45.89 Z" id="Path" fill="#FFFFFF"></path>
            <path d="M1,59.89 C3.42,69.565 6.622,78.883 13.379,86.537 C21.54,95.781 31.579,101.766 43.777,104.006 C44.546,104.147 45.26,104.588 45.999,104.89 C31.082,104.89 16.165,104.89 0.999,104.89 C1,89.891 1,74.89 1,59.89 Z" id="Path" fill="#FFFFFF"></path>
            <path d="M60,104.89 C67.563,101.767 75.724,99.596 82.557,95.309 C94.42,87.865 101.252,76.386 104.047,62.601 C104.236,61.671 104.677,60.792 105,59.89 C105,74.89 105,89.89 105,104.89 C90,104.89 75,104.89 60,104.89 Z" id="Path" fill="#FFFFFF"></path>
            <path d="M46,0.89 C41.608,2.243 37.024,3.165 32.857,5.023 C15.965,12.551 5.489,25.385 1.886,43.657 C1.734,44.429 1.302,45.147 1,45.89 C1,30.89 1,15.89 1,0.89 C16,0.89 31,0.89 46,0.89 Z" id="Path" fill="#FFFFFF"></path>
            <path d="M53.124,96.884128 C29.036,96.942 9.165,77.286 9.013,53.252 C8.859,28.81 28.485,8.973 52.863,8.92992972 C77.305,8.887 97.025,28.581 96.9810735,52.992 C96.938,77.043 77.17,96.827 53.124,96.884128 Z M79.2,61.144 C72.326,60.694 72.326,60.694 68.599,65.351 C61.37,74.384 47.661,75.409 39.303,67.54 C30.878,59.608 30.918,45.922 39.389,38.127 C47.868,30.326 61.924,31.169 68.506,40.651 C71.618,45.134 74.833,45.336 79.229,44.52 C75.73,31.544 62.544,23.163 49.116,25.134 C35.025,27.203 24.892,39.001 25.013,53.197 C25.134,67.3 35.638,78.997 49.731,80.721 C63.049,82.353 76.063,73.812 79.2,61.144 Z" id="Shape" fill="#FFFFFF"></path>
            <path d="M79.2,61.144 C76.063,73.812 63.049,82.353 49.731,80.722 C35.638,78.997 25.134,67.3 25.013,53.198 C24.892,39.003 35.024,27.205 49.116,25.135 C62.544,23.163 75.73,31.545 79.229,44.521 C74.833,45.336 71.619,45.135 68.506,40.652 C61.924,31.17 47.868,30.327 39.389,38.128 C30.918,45.923 30.878,59.609 39.303,67.541 C47.661,75.409 61.371,74.385 68.599,65.352 C72.326,60.694 72.326,60.694 79.2,61.144 Z" id="Path" fill="#000000" fill-rule="nonzero"></path>
        </g>
    </g>
</svg>