<?xml version="1.0" encoding="utf-8"?>
<!-- Generator: Adobe Illustrator 16.0.0, SVG Export Plug-In . SVG Version: 6.00 Build 0)  -->
<!DOCTYPE svg PUBLIC "-//W3C//DTD SVG 1.1//EN" "http://www.w3.org/Graphics/SVG/1.1/DTD/svg11.dtd">
<svg version="1.1" id="Layer_1" xmlns="http://www.w3.org/2000/svg" xmlns:xlink="http://www.w3.org/1999/xlink" x="0px" y="0px"
	 width="595.28px" height="841.89px" viewBox="0 0 595.28 841.89" enable-background="new 0 0 595.28 841.89" xml:space="preserve">
<g>
	<path fill-rule="evenodd" clip-rule="evenodd" fill="#FFFFFF" d="M324,469.89c-14,0-28,0-42,0c5.11-2.349,8.606-6.011,9.271-12
		c1.604,0,2.922,0.007,4.241-0.001c7.312-0.042,7.484-0.212,7.486-7.683c0.006-13.804,0.012-27.608-0.002-41.413
		c-0.007-6.362-0.521-7.005-6.775-6.85c-3.776,0.094-6.718-0.737-9.843-3.301c-10.874-8.922-27.263-4.847-33.292,7.868
		c-0.693,1.461-1.391,2.919-2.086,4.379c0-12.302,0-24.603,0-36.952c31.885,0,63.77,0,96,0c0,19.617,0,39.285,0,58.952
		c-2.688-3.716-6.006-7.134-7.939-11.208c-4.543-9.571-11.348-14.002-22.018-11.837c-1.596,0.323-3.33,0.202-4.97,0.014
		c-3.918-0.448-5.224,1.128-5.149,5.079c0.215,11.621,0.076,23.249,0.076,34.874c0,7.753,0,7.753,7.926,8.391
		C315.183,464.076,319.01,467.456,324,469.89z"/>
	<path fill-rule="evenodd" clip-rule="evenodd" d="M251,410.89c0.695-1.46,1.393-2.918,2.086-4.379
		c6.029-12.715,22.419-16.79,33.292-7.868c3.125,2.563,6.066,3.395,9.843,3.301c6.253-0.155,6.768,0.487,6.775,6.85
		c0.014,13.805,0.008,27.609,0.002,41.413c-0.002,7.471-0.174,7.641-7.486,7.683c-1.318,0.008-2.637,0.001-4.241,0.001
		c-0.666,5.989-4.161,9.651-9.271,12c-2,0-4,0-6,0c-5.108-2.349-8.625-5.991-9.27-12c-1.933,0-3.583,0.012-5.234-0.002
		c-5.94-0.049-6.468-0.582-6.492-6.666c-0.019-4.656-0.28-9.333,0.065-13.963c0.446-5.98-0.736-11.403-4.069-16.369
		C251,417.557,251,414.223,251,410.89z M273.009,431.625c8.339-0.007,15.595-7.15,15.753-15.511
		c0.162-8.514-7.215-15.973-15.785-15.961c-8.392,0.011-15.582,7.086-15.747,15.495C257.065,424.14,264.464,431.631,273.009,431.625
		z M272.983,458.134c0.635,3.578,2.642,5.897,6.36,5.639c3.646-0.254,5.803-2.645,5.528-6.357c-0.254-3.434-2.521-5.493-5.982-5.403
		C275.164,452.108,273.3,454.46,272.983,458.134z"/>
	<path fill-rule="evenodd" clip-rule="evenodd" d="M324,469.89c-4.99-2.435-8.817-5.814-9.074-11.688
		C307,457.565,307,457.565,307,449.812c0-11.625,0.139-23.253-0.076-34.874c-0.074-3.951,1.231-5.527,5.149-5.079
		c1.64,0.188,3.374,0.31,4.97-0.014c10.67-2.165,17.475,2.266,22.018,11.837c1.934,4.074,5.251,7.492,7.939,11.208c0,8,0,16,0,24
		c-2.524,0.489-5.049,0.979-7.641,1.48c-2.082,6.9-2.735,7.711-9.359,11.52C328,469.89,326,469.89,324,469.89z M319.108,433.425
		c6.883,0,13.339,0,19.953,0c-0.292-0.773-0.355-1.116-0.532-1.384c-1.825-2.78-3.666-5.55-5.508-8.319
		c-4.417-6.642-5.84-7.162-13.913-5.033C319.108,423.469,319.108,428.279,319.108,433.425z M326.643,451.841
		c-3.235,0.691-5.696,2.452-5.54,6.263c0.142,3.456,2.298,5.621,5.735,5.676c3.688,0.059,5.992-2.156,6.042-5.857
		C332.932,454.162,330.507,452.332,326.643,451.841z"/>
	<path fill-rule="evenodd" clip-rule="evenodd" fill="#FFFFFF" d="M251,420.89c3.333,4.966,4.515,10.389,4.069,16.369
		c-0.345,4.63-0.083,9.307-0.065,13.963c0.024,6.084,0.552,6.617,6.492,6.666c1.651,0.014,3.302,0.002,5.234,0.002
		c0.645,6.009,4.162,9.651,9.27,12c-8.333,0-16.667,0-25,0C251,453.557,251,437.223,251,420.89z"/>
	<path fill-rule="evenodd" clip-rule="evenodd" fill="#FFFFFF" d="M330,469.89c6.624-3.809,7.277-4.619,9.359-11.52
		c2.592-0.502,5.116-0.991,7.641-1.48c0,4.333,0,8.667,0,13C341.334,469.89,335.666,469.89,330,469.89z"/>
	<path fill-rule="evenodd" clip-rule="evenodd" fill="#FFFFFF" d="M273.009,431.625c-8.545,0.006-15.944-7.485-15.778-15.977
		c0.165-8.409,7.355-15.484,15.747-15.495c8.57-0.012,15.946,7.447,15.785,15.961C288.604,424.475,281.348,431.619,273.009,431.625z
		 M279.988,422.917c-1.944-3.034-4.531-5.852-5.65-9.165c-1.095-3.241-0.692-6.987-0.947-10.512
		C268.482,413.285,270.622,419.379,279.988,422.917z"/>
	<path fill-rule="evenodd" clip-rule="evenodd" fill="#FFFFFF" d="M272.983,458.134c0.317-3.674,2.181-6.026,5.906-6.122
		c3.461-0.09,5.728,1.97,5.982,5.403c0.275,3.713-1.882,6.104-5.528,6.357C275.625,464.032,273.618,461.712,272.983,458.134z"/>
	<path fill-rule="evenodd" clip-rule="evenodd" fill="#FFFFFF" d="M319.108,433.425c0-5.146,0-9.956,0-14.736
		c8.073-2.129,9.496-1.608,13.913,5.033c1.842,2.77,3.683,5.539,5.508,8.319c0.177,0.268,0.24,0.61,0.532,1.384
		C332.447,433.425,325.991,433.425,319.108,433.425z"/>
	<path fill-rule="evenodd" clip-rule="evenodd" fill="#FFFFFF" d="M326.643,451.841c3.864,0.49,6.289,2.32,6.237,6.081
		c-0.05,3.701-2.354,5.916-6.042,5.857c-3.438-0.055-5.594-2.22-5.735-5.676C320.946,454.293,323.407,452.533,326.643,451.841z"/>
	<path fill-rule="evenodd" clip-rule="evenodd" d="M279.988,422.917c-9.366-3.538-11.506-9.633-6.598-19.677
		c0.255,3.524-0.147,7.271,0.947,10.512C275.457,417.066,278.044,419.883,279.988,422.917z"/>
</g>
</svg>
