<?xml version="1.0" encoding="utf-8"?>
<!-- Generator: Adobe Illustrator 16.0.0, SVG Export Plug-In . SVG Version: 6.00 Build 0)  -->
<!DOCTYPE svg PUBLIC "-//W3C//DTD SVG 1.1//EN" "http://www.w3.org/Graphics/SVG/1.1/DTD/svg11.dtd">
<svg version="1.1" id="Layer_1" xmlns="http://www.w3.org/2000/svg" xmlns:xlink="http://www.w3.org/1999/xlink" x="0px" y="0px"
	 width="595.28px" height="841.89px" viewBox="0 0 595.28 841.89" enable-background="new 0 0 595.28 841.89" xml:space="preserve">
<g>
	<path fill-rule="evenodd" clip-rule="evenodd" fill="#FFFFFF" d="M346.844,469.89c-31.863,0-63.822,0-95.812,0
		c0-31.938,0-63.874,0-95.906c31.864,0,63.759,0,95.812,0C346.844,405.889,346.844,437.89,346.844,469.89z M307.513,422.588
		c5.079,3.572,10.047,4.181,15.47,1.926c1.23-0.512,2.929,0.204,4.405,0.16c2.798-0.083,6.323,0.664,8.182-0.74
		c1.912-1.443,3.371-5.23,2.983-7.667c-1.488-9.348-3.732-18.579-5.832-27.823c-0.908-4.003-3.504-6.483-7.742-6.501
		c-17.154-0.07-34.309-0.068-51.462-0.004c-4.108,0.016-7.16,2.084-8.108,6.121c-2.245,9.551-4.371,19.137-6.196,28.774
		c-0.908,4.793,3.438,10.162,7.623,8.734c5.079-1.732,9.395-0.323,14.116,0.133c2.439,0.235,5.026-1.336,7.584-1.93
		c1.125-0.261,2.648-0.605,3.469-0.087C297.396,427.092,302.423,426.333,307.513,422.588z M271,430.152c-3.028,0-5.299,0-7.895,0
		c0,7.215-0.316,14.194,0.097,21.131c0.35,5.884,5.396,10.456,11.44,10.522c16.163,0.178,32.329,0.16,48.493,0.019
		c5.895-0.052,11.09-4.214,11.523-9.839c0.558-7.228,0.136-14.53,0.136-21.714c-2.819,0-5.198,0-7.794,0
		c0,5.864,0.022,11.351-0.006,16.837c-0.033,6.22-0.974,7.016-7.996,6.439c0-7.695,0-15.451,0-23.341c-5.559,0-10.609,0-16.207,0
		c0,8.035,0,15.766,0,23.683c-8.872,0-17.197-0.159-25.513,0.062c-4.878,0.129-6.509-2.021-6.33-6.635
		C271.167,441.694,271,436.055,271,430.152z M294.786,430.25c-5.464,0-10.505,0-15.381,0c0,5.412,0,10.456,0,15.367
		c5.332,0,10.255,0,15.381,0C294.786,440.428,294.786,435.506,294.786,430.25z"/>
	<path fill-rule="evenodd" clip-rule="evenodd" d="M307.513,422.588c-5.09,3.744-10.117,4.504-15.51,1.097
		c-0.821-0.519-2.344-0.174-3.469,0.087c-2.558,0.594-5.145,2.165-7.584,1.93c-4.721-0.456-9.037-1.865-14.116-0.133
		c-4.185,1.428-8.53-3.941-7.623-8.734c1.825-9.638,3.951-19.224,6.196-28.774c0.949-4.037,4-6.105,8.108-6.121
		c17.154-0.064,34.308-0.066,51.462,0.004c4.238,0.018,6.834,2.498,7.742,6.501c2.1,9.244,4.344,18.476,5.832,27.823
		c0.388,2.437-1.071,6.224-2.983,7.667c-1.858,1.404-5.384,0.657-8.182,0.74c-1.477,0.044-3.175-0.672-4.405-0.16
		C317.56,426.769,312.592,426.161,307.513,422.588z M279.038,394.055c-1.024,5.7-1.918,11.1-2.986,16.463
		c-0.694,3.486-0.502,6.462,3.714,7.186c3.95,0.679,6.43-1.353,7.292-5.088c1.402-6.075,2.567-12.204,3.884-18.561
		C286.821,394.055,283.198,394.055,279.038,394.055z M307.048,394.136c1.345,6.453,2.475,12.647,3.966,18.755
		c0.91,3.727,3.564,5.585,7.492,4.755c3.896-0.823,4.124-3.608,3.467-6.915c-1.094-5.498-2.016-11.031-3.018-16.595
		C314.863,394.136,311.113,394.136,307.048,394.136z"/>
	<path fill-rule="evenodd" clip-rule="evenodd" d="M271,430.152c0,5.903,0.167,11.542-0.052,17.164
		c-0.18,4.614,1.452,6.764,6.33,6.635c8.316-0.221,16.642-0.062,25.513-0.062c0-7.917,0-15.647,0-23.683c5.598,0,10.648,0,16.207,0
		c0,7.89,0,15.646,0,23.341c7.022,0.576,7.963-0.22,7.996-6.439c0.028-5.486,0.006-10.973,0.006-16.837c2.596,0,4.975,0,7.794,0
		c0,7.184,0.422,14.486-0.136,21.714c-0.434,5.625-5.629,9.787-11.523,9.839c-16.164,0.142-32.33,0.159-48.493-0.019
		c-6.044-0.066-11.09-4.639-11.44-10.522c-0.413-6.937-0.097-13.916-0.097-21.131C265.702,430.152,267.973,430.152,271,430.152z"/>
	<path fill-rule="evenodd" clip-rule="evenodd" d="M294.786,430.25c0,5.256,0,10.178,0,15.367c-5.126,0-10.05,0-15.381,0
		c0-4.911,0-9.955,0-15.367C284.28,430.25,289.321,430.25,294.786,430.25z"/>
	<path fill-rule="evenodd" clip-rule="evenodd" fill="#FFFFFF" d="M279.038,394.055c4.16,0,7.783,0,11.905,0
		c-1.317,6.356-2.482,12.485-3.884,18.561c-0.862,3.735-3.342,5.767-7.292,5.088c-4.216-0.724-4.409-3.699-3.714-7.186
		C277.12,405.155,278.013,399.755,279.038,394.055z"/>
	<path fill-rule="evenodd" clip-rule="evenodd" fill="#FFFFFF" d="M307.048,394.136c4.065,0,7.815,0,11.907,0
		c1.002,5.563,1.924,11.097,3.018,16.595c0.657,3.307,0.43,6.092-3.467,6.915c-3.928,0.83-6.582-1.028-7.492-4.755
		C309.522,406.784,308.393,400.589,307.048,394.136z"/>
</g>
</svg>
