<?xml version="1.0" encoding="utf-8"?>
<!-- Generator: Adobe Illustrator 16.0.0, SVG Export Plug-In . SVG Version: 6.00 Build 0)  -->
<!DOCTYPE svg PUBLIC "-//W3C//DTD SVG 1.1//EN" "http://www.w3.org/Graphics/SVG/1.1/DTD/svg11.dtd">
<svg version="1.1" id="Layer_1" xmlns="http://www.w3.org/2000/svg" xmlns:xlink="http://www.w3.org/1999/xlink" x="0px" y="0px"
	 width="595.3px" height="841.9px" viewBox="0 0 595.28 841.89" enable-background="new 0 0 595.28 841.89" xml:space="preserve">
<g>
	<path fill-rule="evenodd" clip-rule="evenodd" fill="none" d="M 359.5 506.5 c -33.3 0 -66.7 0 -100 0 c 0 -33.3 0 -66.7 0 -100 c 33.3 0 66.7 0 100 0 C 359.5 439.9 359.5 473.2 359.5 506.5 z M 309.5 503.2 c 2.3 -0.8 4.7 -2.5 6.5 -2 c 6.4 1.6 13 -0.4 18.8 0.5 c 5.4 0.8 8.7 0.1 11.2 -3.5 c 1.2 -1.8 0 -5.3 0.1 -8 c 0 -1.4 0.2 -2.8 0.7 -4.1 c 1.5 -4.6 -0.5 -9 -0.7 -13.3 c -0.1 -4.4 2.3 -9 0.6 -13.8 c -0.5 -1.5 -0.4 -3.4 0 -4.9 c 1.4 -4.6 0.3 -8.8 -0.8 -13.4 c -1 -4.3 0.5 -9.1 0.7 -13.7 c 0.1 -1.2 -1.2 -3 -0.7 -3.6 c 4 -5.2 0.8 -9 -2.9 -11.5 c -1.8 -1.2 -5.5 0.8 -8 0.1 c -6.4 -1.8 -12.6 -0.5 -18.9 -0.4 c -4.4 0.1 -8.8 0.1 -13.1 0 c -6.3 -0.2 -12.9 0.7 -18.8 -0.2 c -5.4 -0.8 -8.7 0 -11.2 3.5 c -1.3 1.8 0 5.3 0 8 c 0 1.2 0 2.6 -0.4 3.7 c -1.9 4.8 0.2 9.2 0.4 13.8 c 0.2 4.4 -2.3 9 -0.6 13.8 c 0.5 1.5 0.4 3.4 0 4.9 c -1.4 4.6 -0.2 8.8 0.9 13.4 c 1 4.3 -0.5 9.1 -0.7 13.7 c -0.1 1.2 1.2 2.9 0.7 3.6 c -4 5.2 -0.7 9 3 11.5 c 1.8 1.2 5.5 -0.9 8 -0.2 c 6.4 1.8 12.5 1.6 18.9 0.1 C 304.8 500.7 307.2 502.4 309.5 503.2 z"/>
	<path fill-rule="evenodd" clip-rule="evenodd" d="M 309.5 503.2 c -2.3 -0.8 -4.7 -2.4 -6.5 -2 c -6.4 1.5 -12.5 1.7 -18.9 -0.1 c -2.5 -0.7 -6.3 1.4 -8 0.2 c -3.7 -2.6 -6.9 -6.3 -3 -11.5 c 0.5 -0.6 -0.8 -2.4 -0.7 -3.6 c 0.2 -4.6 1.8 -9.5 0.7 -13.7 c -1.1 -4.6 -2.2 -8.7 -0.9 -13.4 c 0.5 -1.5 0.6 -3.4 0 -4.9 c -1.7 -4.8 0.8 -9.4 0.6 -13.8 c -0.2 -4.5 -2.2 -9 -0.4 -13.8 c 0.4 -1.1 0.4 -2.4 0.4 -3.7 c 0 -2.7 -1.2 -6.2 0 -8 c 2.5 -3.5 5.8 -4.3 11.2 -3.5 c 5.8 0.9 12.4 0 18.8 0.2 c 4.3 0.1 8.8 0.1 13.1 0 c 6.3 -0.1 12.5 -1.4 18.9 0.4 c 2.5 0.7 6.2 -1.4 8 -0.1 c 3.8 2.6 6.9 6.3 2.9 11.5 c -0.5 0.6 0.8 2.4 0.7 3.6 c -0.2 4.6 -1.8 9.5 -0.7 13.7 c 1.1 4.6 2.3 8.7 0.8 13.4 c -0.5 1.5 -0.5 3.4 0 4.9 c 1.7 4.8 -0.8 9.4 -0.6 13.8 c 0.1 4.3 2.1 8.7 0.7 13.3 c -0.4 1.3 -0.6 2.7 -0.7 4.1 c 0 2.7 1.2 6.2 -0.1 8 c -2.5 3.6 -5.8 4.3 -11.2 3.5 c -5.9 -0.9 -12.4 1.1 -18.8 -0.5 C 314.2 500.7 311.8 502.4 309.5 503.2 z M 283.5 456 c 0 10 0.1 20 -0.1 29.9 c -0.1 3.5 1.1 4.7 4.6 4.6 c 14.3 -0.1 28.6 -0.1 42.9 0 c 3.5 0 4.6 -1.1 4.6 -4.6 c -0.1 -19.6 -0.1 -39.3 0 -58.9 c 0 -3.4 -1.1 -4.7 -4.6 -4.6 c -14.3 0.1 -28.6 0.1 -42.9 0 c -3.5 0 -4.7 1.1 -4.6 4.6 C 283.6 436.7 283.5 446.4 283.5 456 z"/>
	<path fill-rule="evenodd" clip-rule="evenodd" fill="#FFFFFF" d="M 283.5 456 c 0 -9.6 0.1 -19.3 -0.1 -28.9 c -0.1 -3.5 1.1 -4.6 4.6 -4.6 c 14.3 0.1 28.6 0.1 42.9 0 c 3.5 0 4.6 1.2 4.6 4.6 c -0.1 19.6 -0.1 39.3 0 58.9 c 0 3.5 -1.2 4.6 -4.6 4.6 c -14.3 -0.1 -28.6 -0.1 -42.9 0 c -3.5 0 -4.6 -1.2 -4.6 -4.6 C 283.6 476 283.5 466 283.5 456 z M 331.2 426.9 c -14.8 0 -29.1 0 -43.4 0 c 0 20.1 0 39.8 0 59.4 c 14.7 0 28.9 0 43.4 0 C 331.2 466.4 331.2 446.8 331.2 426.9 z"/>
	<path fill-rule="evenodd" clip-rule="evenodd" d="M 331.2 426.9 c 0 19.9 0 39.5 0 59.4 c -14.5 0 -28.7 0 -43.4 0 c 0 -19.6 0 -39.3 0 -59.4 C 302.1 426.9 316.5 426.9 331.2 426.9 z"/>
</g>
</svg>
