<?xml version="1.0" encoding="UTF-8"?>
<svg width="77px" height="93px" viewBox="0 0 77 93" version="1.1" xmlns="http://www.w3.org/2000/svg" xmlns:xlink="http://www.w3.org/1999/xlink">
    <!-- Generator: Sketch 55.1 (78136) - https://sketchapp.com -->
    <title>select-posts</title>
    <desc>Created with Sketch.</desc>
    <g id="SVGs" stroke="none" stroke-width="1" fill="none" fill-rule="evenodd">
        <g id="select-posts" transform="translate(-12.000000, -5.000000)">
            <path d="M100.5,100.5 C67.2,100.5 33.8,100.5 0.5,100.5 C0.5,67.2 0.5,33.8 0.5,0.5 C33.8,0.5 67.2,0.5 100.5,0.5 C100.5,33.9 100.5,67.2 100.5,100.5 Z M50.5,97.2 C52.8,96.4 55.2,94.7 57,95.2 C63.4,96.8 70,94.8 75.8,95.7 C81.2,96.5 84.5,95.8 87,92.2 C88.2,90.4 87,86.9 87.1,84.2 C87.1,82.8 87.3,81.4 87.8,80.1 C89.3,75.5 87.3,71.1 87.1,66.8 C87,62.4 89.4,57.8 87.7,53 C87.2,51.5 87.3,49.6 87.7,48.1 C89.1,43.5 88,39.3 86.9,34.7 C85.9,30.4 87.4,25.6 87.6,21 C87.7,19.8 86.4,18 86.9,17.4 C90.9,12.2 87.7,8.4 84,5.9 C82.2,4.7 78.5,6.7 76,6 C69.6,4.2 63.4,5.5 57.1,5.6 C52.7,5.7 48.3,5.7 44,5.6 C37.7,5.4 31.1,6.3 25.2,5.4 C19.8,4.6 16.5,5.4 14,8.9 C12.7,10.7 14,14.2 14,16.9 C14,18.1 14,19.5 13.6,20.6 C11.7,25.4 13.8,29.8 14,34.4 C14.2,38.8 11.7,43.4 13.4,48.2 C13.9,49.7 13.8,51.6 13.4,53.1 C12,57.7 13.2,61.9 14.3,66.5 C15.3,70.8 13.8,75.6 13.6,80.2 C13.5,81.4 14.8,83.1 14.3,83.8 C10.3,89 13.6,92.8 17.3,95.3 C19.1,96.5 22.8,94.4 25.3,95.1 C31.7,96.9 37.8,96.7 44.2,95.2 C45.8,94.7 48.2,96.4 50.5,97.2 Z" id="Shape"></path>
            <path d="M50.5,97.2 C48.2,96.4 45.8,94.8 44,95.2 C37.6,96.7 31.5,96.9 25.1,95.1 C22.6,94.4 18.8,96.5 17.1,95.3 C13.4,92.7 10.2,89 14.1,83.8 C14.6,83.2 13.3,81.4 13.4,80.2 C13.6,75.6 15.2,70.7 14.1,66.5 C13,61.9 11.9,57.8 13.2,53.1 C13.7,51.6 13.8,49.7 13.2,48.2 C11.5,43.4 14,38.8 13.8,34.4 C13.6,29.9 11.6,25.4 13.4,20.6 C13.8,19.5 13.8,18.2 13.8,16.9 C13.8,14.2 12.6,10.7 13.8,8.9 C16.3,5.4 19.6,4.6 25,5.4 C30.8,6.3 37.4,5.4 43.8,5.6 C48.1,5.7 52.6,5.7 56.9,5.6 C63.2,5.5 69.4,4.2 75.8,6 C78.3,6.7 82,4.6 83.8,5.9 C87.6,8.5 90.7,12.2 86.7,17.4 C86.2,18 87.5,19.8 87.4,21 C87.2,25.6 85.6,30.5 86.7,34.7 C87.8,39.3 89,43.4 87.5,48.1 C87,49.6 87,51.5 87.5,53 C89.2,57.8 86.7,62.4 86.9,66.8 C87,71.1 89,75.5 87.6,80.1 C87.2,81.4 87,82.8 86.9,84.2 C86.9,86.9 88.1,90.4 86.8,92.2 C84.3,95.8 81,96.5 75.6,95.7 C69.7,94.8 63.2,96.8 56.8,95.2 C55.2,94.7 52.8,96.4 50.5,97.2 Z M24.5,50 C24.5,60 24.6,70 24.4,79.9 C24.3,83.4 25.5,84.6 29,84.5 C43.3,84.4 57.6,84.4 71.9,84.5 C75.4,84.5 76.5,83.4 76.5,79.9 C76.4,60.3 76.4,40.6 76.5,21 C76.5,17.6 75.4,16.3 71.9,16.4 C57.6,16.5 43.3,16.5 29,16.4 C25.5,16.4 24.3,17.5 24.4,21 C24.6,30.7 24.5,40.4 24.5,50 Z" id="Shape" fill="#000000" fill-rule="nonzero"></path>
            <path d="M24.5,50 C24.5,40.4 24.6,30.7 24.4,21.1 C24.3,17.6 25.5,16.5 29,16.5 C43.3,16.6 57.6,16.6 71.9,16.5 C75.4,16.5 76.5,17.7 76.5,21.1 C76.4,40.7 76.4,60.4 76.5,80 C76.5,83.5 75.3,84.6 71.9,84.6 C57.6,84.5 43.3,84.5 29,84.6 C25.5,84.6 24.4,83.4 24.4,80 C24.6,70 24.5,60 24.5,50 Z M72.2,20.9 C57.4,20.9 43.1,20.9 28.8,20.9 C28.8,41 28.8,60.7 28.8,80.3 C43.5,80.3 57.7,80.3 72.2,80.3 C72.2,60.4 72.2,40.8 72.2,20.9 Z" id="Shape" fill="#FFFFFF"></path>
            <path d="M72.2,20.9 C72.2,40.8 72.2,60.4 72.2,80.3 C57.7,80.3 43.5,80.3 28.8,80.3 C28.8,60.7 28.8,41 28.8,20.9 C43.1,20.9 57.5,20.9 72.2,20.9 Z" id="Path" fill="#000000" fill-rule="nonzero"></path>
        </g>
    </g>
</svg>