<?xml version="1.0" encoding="UTF-8"?>
<svg width="96px" height="97px" viewBox="0 0 96 97" version="1.1" xmlns="http://www.w3.org/2000/svg" xmlns:xlink="http://www.w3.org/1999/xlink">
    <!-- Generator: Sketch 55.1 (78136) - https://sketchapp.com -->
    <title>transport</title>
    <desc>Created with Sketch.</desc>
    <g id="SVGs" stroke="none" stroke-width="1" fill="none" fill-rule="evenodd">
        <g id="transport">
            <path d="M73,96.89 C59,96.89 45,96.89 31,96.89 C36.11,94.541 39.606,90.879 40.271,84.89 C41.875,84.89 43.193,84.897 44.512,84.889 C51.824,84.847 51.996,84.677 51.998,77.206 C52.004,63.402 52.01,49.598 51.996,35.793 C51.989,29.431 51.475,28.788 45.221,28.943 C41.445,29.037 38.503,28.206 35.378,25.642 C24.504,16.72 8.115,20.795 2.086,33.51 C1.393,34.971 0.695,36.429 -2.84217094e-14,37.889 C-2.84217094e-14,25.587 -2.84217094e-14,13.286 -2.84217094e-14,0.937 C31.885,0.937 63.77,0.937 96,0.937 C96,20.554 96,40.222 96,59.889 C93.312,56.173 89.994,52.755 88.061,48.681 C83.518,39.11 76.713,34.679 66.043,36.844 C64.447,37.167 62.713,37.046 61.073,36.858 C57.155,36.41 55.849,37.986 55.924,41.937 C56.139,53.558 56,65.186 56,76.811 C56,84.564 56,84.564 63.926,85.202 C64.183,91.076 68.01,94.456 73,96.89 Z" id="Path" fill="#FFFFFF"></path>
            <path d="M0,37.89 C0.695,36.43 1.393,34.972 2.086,33.511 C8.115,20.796 24.505,16.721 35.378,25.643 C38.503,28.206 41.444,29.038 45.221,28.944 C51.474,28.789 51.989,29.431 51.996,35.794 C52.01,49.599 52.004,63.403 51.998,77.207 C51.996,84.678 51.824,84.848 44.512,84.89 C43.194,84.898 41.875,84.891 40.271,84.891 C39.605,90.88 36.11,94.542 31,96.891 C29,96.891 27,96.891 25,96.891 C19.892,94.542 16.375,90.9 15.73,84.891 C13.797,84.891 12.147,84.903 10.496,84.889 C4.556,84.84 4.028,84.307 4.004,78.223 C3.985,73.567 3.724,68.89 4.069,64.26 C4.515,58.28 3.333,52.857 0,47.891 C0,44.557 0,41.223 0,37.89 Z M22.009,58.6250036 C30.348,58.618 37.604,51.475 37.762,43.114 C37.924,34.6 30.547,27.141 21.977,27.1529855 C13.585,27.164 6.395,34.239 6.23,42.648 C6.065,51.14 13.464,58.631 22.009,58.6250036 Z M21.983,85.134 C22.618,88.712 24.625,91.031 28.343,90.773 C31.989,90.519 34.146,88.128 33.871,84.416 C33.617,80.982 31.35,78.923 27.889,79.013 C24.164,79.108 22.3,81.46 21.983,85.134 Z" id="Shape" fill="#000000" fill-rule="nonzero"></path>
            <path d="M73,96.89 C68.01,94.455 64.183,91.076 63.926,85.202 C56,84.565 56,84.565 56,76.812 C56,65.187 56.139,53.559 55.924,41.938 C55.85,37.987 57.155,36.411 61.073,36.859 C62.713,37.047 64.447,37.169 66.043,36.845 C76.713,34.68 83.518,39.111 88.061,48.682 C89.995,52.756 93.312,56.174 96,59.89 C96,67.89 96,75.89 96,83.89 C93.476,84.379 90.951,84.869 88.359,85.37 C86.277,92.27 85.624,93.081 79,96.89 C77,96.89 75,96.89 73,96.89 Z M68.108,60.425 C74.991,60.425 81.447,60.425 88.061,60.425 C87.769,59.652 87.706,59.309 87.529,59.041 C85.704,56.261 83.863,53.491 82.021,50.722 C77.604,44.08 76.181,43.56 68.108,45.689 C68.108,50.469 68.108,55.279 68.108,60.425 Z M75.643,78.841 C72.408,79.532 69.947,81.293 70.103,85.104 C70.245,88.56 72.401,90.725 75.838,90.78 C79.526,90.839 81.83,88.624 81.88,84.923 C81.932,81.162 79.507,79.332 75.643,78.841 Z" id="Shape" fill="#000000" fill-rule="nonzero"></path>
            <path d="M-5.68434189e-14,47.89 C3.333,52.856 4.515,58.279 4.069,64.259 C3.724,68.889 3.986,73.566 4.004,78.222 C4.028,84.306 4.556,84.839 10.496,84.888 C12.147,84.902 13.798,84.89 15.73,84.89 C16.375,90.899 19.892,94.541 25,96.89 C16.667,96.89 8.333,96.89 -5.68434189e-14,96.89 C-5.68434189e-14,80.557 -5.68434189e-14,64.223 -5.68434189e-14,47.89 Z" id="Path" fill="#FFFFFF"></path>
            <path d="M79,96.89 C85.624,93.081 86.277,92.271 88.359,85.37 C90.951,84.868 93.475,84.379 96,83.89 C96,88.223 96,92.557 96,96.89 C90.334,96.89 84.666,96.89 79,96.89 Z" id="Path" fill="#FFFFFF"></path>
            <path d="M22.009,58.6250036 C13.464,58.631 6.065,51.14 6.231,42.648 C6.396,34.239 13.586,27.164 21.978,27.1529855 C30.548,27.141 37.924,34.6 37.763,43.114 C37.604,51.475 30.348,58.619 22.009,58.6250036 Z M28.988,49.917 C27.044,46.883 24.457,44.065 23.338,40.752 C22.243,37.511 22.646,33.765 22.391,30.24 C17.482,40.285 19.622,46.379 28.988,49.917 Z" id="Shape" fill="#FFFFFF"></path>
            <path d="M21.983,85.134 C22.3,81.46 24.164,79.108 27.889,79.012 C31.35,78.922 33.617,80.982 33.871,84.415 C34.146,88.128 31.989,90.519 28.343,90.772 C24.625,91.032 22.618,88.712 21.983,85.134 Z" id="Path" fill="#FFFFFF"></path>
            <path d="M68.108,60.425 C68.108,55.279 68.108,50.469 68.108,45.689 C76.181,43.56 77.604,44.081 82.021,50.722 C83.863,53.492 85.704,56.261 87.529,59.041 C87.706,59.309 87.769,59.651 88.061,60.425 C81.447,60.425 74.991,60.425 68.108,60.425 Z" id="Path" fill="#FFFFFF"></path>
            <path d="M75.643,78.841 C79.507,79.331 81.932,81.161 81.88,84.922 C81.83,88.623 79.526,90.838 75.838,90.779 C72.4,90.724 70.244,88.559 70.103,85.103 C69.946,81.293 72.407,79.533 75.643,78.841 Z" id="Path" fill="#FFFFFF"></path>
            <path d="M28.988,49.917 C19.622,46.379 17.482,40.284 22.39,30.24 C22.645,33.764 22.243,37.511 23.337,40.752 C24.457,44.066 27.044,46.883 28.988,49.917 Z" id="Path" fill="#000000" fill-rule="nonzero"></path>
        </g>
    </g>
</svg>